<svg version="1.2" xmlns="http://www.w3.org/2000/svg" viewBox="0 0 1000 1000" width="181" height="181"><defs><linearGradient id="P" gradientUnits="userSpaceOnUse"/><linearGradient id="g1" x2="1" href="#P" gradientTransform="matrix(0,192.282,-65.827,0,564.97,515.688)"><stop stop-color="#fff"/><stop offset=".52" stop-color="#f9fafe"/><stop offset=".53" stop-color="#bbb6c2"/><stop offset=".93" stop-color="#fff"/></linearGradient><linearGradient id="g2" x2="1" href="#P" gradientTransform="matrix(0,174.699,-77.742,0,566.425,517.576)"><stop stop-color="#fff"/><stop offset=".52" stop-color="#f9fafe"/><stop offset=".53" stop-color="#bbb6c2"/><stop offset=".93" stop-color="#fff"/></linearGradient><linearGradient id="g3" x2="1" href="#P" gradientTransform="matrix(0,160.479,-94.167,0,610.748,517.485)"><stop stop-color="#fff"/><stop offset=".52" stop-color="#f9fafe"/><stop offset=".53" stop-color="#bbb6c2"/><stop offset=".93" stop-color="#fff"/></linearGradient><linearGradient id="g4" x2="1" href="#P" gradientTransform="matrix(0,160.104,-22.946,0,1134.102,517.5)"><stop stop-color="#fff"/><stop offset=".52" stop-color="#f9fafe"/><stop offset=".53" stop-color="#bbb6c2"/><stop offset=".93" stop-color="#fff"/></linearGradient><linearGradient id="g5" x2="1" href="#P" gradientTransform="matrix(0,173.591,-71.5,0,844.658,517.546)"><stop stop-color="#fff"/><stop offset=".52" stop-color="#f9fafe"/><stop offset=".53" stop-color="#bbb6c2"/><stop offset=".93" stop-color="#fff"/></linearGradient><linearGradient id="g6" x2="1" href="#P" gradientTransform="matrix(0,192.282,-65.827,0,1009.505,515.688)"><stop stop-color="#fff"/><stop offset=".52" stop-color="#f9fafe"/><stop offset=".53" stop-color="#bbb6c2"/><stop offset=".93" stop-color="#fff"/></linearGradient></defs><style>.a{fill:#08d9ff}.b{fill:#07dbf9}.c{fill:#0f1e35}.d{fill:#10081f}.e{fill:#f0eff1}.f{fill:#bbb6c2}.g{fill:#fff}.h{fill:url(#g1)}.i{fill:url(#g2)}.j{fill:url(#g3)}.k{fill:url(#g4)}.l{fill:url(#g5)}.m{fill:url(#g6)}.n{fill:#0f081f}.o{fill:#08d8ff}.p{fill:#374470}</style><path class="a" d="m276.2 727.2c-19.8 4.9-36.3 1.3-46.8-11.9-8.4-10.5-12.5-26.3-12.5-47.7q0-50.5 0-100.9c0-21.4 4.2-38.6 12.8-51.7 10.7-16.4 27.6-24.9 47.6-24.9 20 0.1 36.8 8.3 47.4 22.5 8.6 11.6 12.7 26.2 12.6 45.1q-0.3 44.6-0.6 89.1c-0.1 18.9-4.4 34.3-13.1 47.5-10.7 16.3-27.6 28-47.4 32.9z"/><path class="a" d="m295.3 720.7c9.8-78.3 19.7-154.3 29.6-228.6q41 0 81.9-0.1c9.1 70.3 18.4 139.7 27.7 208.6-46.7 3.1-93.3 9.8-139.2 20.1z"/><path class="a" d="m394.6 704.2q0.5-106.1 1-212.2 73.7 0 147.3 0 0.3 104 0.6 207.9c-49.6-2.6-99.5-1.2-148.9 4.3z"/><path class="a" d="m512.8 698.8q-0.1-103.4-0.2-206.8 38.9 0 77.7 0 0.6 105.9 1.1 211.7c-26.1-2.8-52.4-4.4-78.6-4.9z"/><path class="a" d="m560.6 701q-0.4-104.5-0.8-209 62.5 0 125 0.2 0.6 113.2 1.2 226.5c-41.4-8.8-83.4-14.7-125.4-17.7z"/><path class="a" d="m713.9 727.2c-19.8-4.9-36.7-16.6-47.4-32.9-8.7-13.2-13-28.6-13.1-47.5q-0.3-44.5-0.6-89.1c-0.1-18.9 4-33.5 12.6-45.1 10.6-14.2 27.5-22.4 47.4-22.5 20 0 36.9 8.5 47.6 24.9 8.7 13.1 12.8 30.3 12.8 51.7q0 50.4 0 100.9c0 21.4-4.1 37.2-12.5 47.7-10.5 13.2-27 16.8-46.8 11.9z"/><path class="b" d="m723.4 297.8c0 0-106.8-84-223.4-84-116.5 0-223.4 84-223.4 84 0 0-5 157.2 223.4 362.2 228.4-205 223.4-362.2 223.4-362.2z"/><path class="a" d="m504.1 523.6c-1.4 0-2.8-0.2-4.1-0.7-1.3 0.5-2.7 0.7-4.1 0.7-2 0-3.9-0.5-5.7-1.5 0 0-0.9-0.5-0.9-0.5 0 0-6.3-3.8-6.4-3.9l-1.2-0.7c-1.8 1.1-3.9 1.7-6 1.7q-0.6 0-1.1-0.1c-2.7-0.2-4.5-1.3-5.5-1.8-0.1-0.1-1.7-1-1.7-1 0 0-3.2-1.8-3.3-1.9-2.1 1.9-4.9 3-7.7 3q-0.6 0-1.3-0.1-2.1-0.2-4-1-0.9-0.4-1.8-1l-1.4-0.9q-1.5-1-2.9-2c-1.3-0.8-2.4-1.7-3.5-2.5v-0.1c-1.4-1-2.5-2.1-3.5-3-0.2-0.2-1.1-1.1-1.1-1.1-0.3-0.3-0.6-0.6-0.9-0.9 0 0-1.7-1.9-1.8-2q-1-1.2-2-2.5c-0.1-0.1-0.3-0.2-0.3-0.3-1.7-2.2-2.9-4.1-4.1-6-4.6-7.6-8.1-16.8-10.4-27.2q-1-4.4-1.6-8.6-0.3-2.1-0.5-4.3c0 0-0.1-1.4-0.1-1.5 0 0-0.2-2.3-0.2-2.3q-0.2-2.7 0.9-5.3 0.7-1.7 1.9-3.1l0.7-0.8 1.3-1.4c1.7-1.9 2.3-3.2 2.5-3.8q-0.1-0.2-0.5-0.6l-0.4-0.5-0.2-0.1c0 0-0.2-0.1-0.2-0.1q0 0-0.6 0-0.5 0-1 0.1h-0.8l-1.8 0.4c0 0-2.9 0.8-3 0.8-4.5 1-8.5 1.5-12.4 1.5-2.8 0-5.6-0.3-8.1-0.8-6.5-1.3-12.7-4.7-17.2-9.4-2.9-2.2-5.6-4.7-8.1-7.6q-0.1-0.1-0.1-0.2c-2.5-3-4.6-6.4-6.3-9.9q0-0.1-0.1-0.2c-1.7-3.8-2.9-8.2-3.4-12.7-0.9-7-0.4-14.2 1.6-22q1.5-6.2 4.1-12-0.2-2.3-0.7-4.5c-0.5-3-1.4-6-2.6-8.8-0.6-1.7-1.5-3.4-2.3-5-0.5-0.9-1.1-1.9-1.7-3q-0.8-1.4-1.6-3l-1.7-3.2-1.8-3.3c-0.9-1.7-1.9-3.7-2.6-6-1-2.9-1.4-6-1.2-9q0.1-2.1 0.5-4.4c0.5-2.9 1.4-5.8 2.7-8.8 1.4-3.2 3.2-6.3 5.5-9.4 0.9-1.3 1.8-2.5 2.8-3.6v-0.6c0.1-0.7 0.1-1.3 0.2-1.9 0.1-1.4 0.2-3 0.5-4.7l0.3-2.1c0.4-3.4 0.9-6.9 1.7-10.6l0.3-1.4q0.3-2 0.8-3.9c0-0.1 2-7.9 2-7.9q0.1-0.3 0.2-0.6l0.8-2.4 1.6-4.9q0.1-0.2 0.2-0.5c3-7.9 5.9-14 9.2-19.2 3.2-5.5 6.8-10.2 9.7-13.6 1.8-2.6 3.6-5 5.5-7.3 8.3-9.9 17.5-18.2 27.6-24.8 2.1-1.5 4.2-2.8 6.2-4q1-0.6 2-1.2 0.3-0.2 0.7-0.3l1.9-1c2.2-1.2 4.4-2.4 6.9-3.5 2.6-1.2 5.2-2.3 7.7-3.3 0 0 1.8-0.7 1.9-0.7q1.6-0.6 3.3-1.2l3.9-1.3q0.2-0.1 0.5-0.1l2.3-0.7c13-3.8 27.5-5.8 42.9-5.9 15.6 0.1 30.1 2.1 43.2 5.9l2.2 0.7q0.3 0 0.5 0.1l3.9 1.3q1.7 0.6 3.3 1.2c0.1 0 1.9 0.7 1.9 0.7 2.5 1 5.1 2.1 7.7 3.3 2.5 1.1 4.8 2.3 6.9 3.5l1.9 1q0.4 0.1 0.7 0.3 1 0.6 2 1.2c2 1.2 4.1 2.5 6.2 4 10.1 6.6 19.3 14.9 27.5 24.7 2 2.4 3.8 4.8 5.7 7.4 2.8 3.4 6.4 8.1 9.6 13.6 3.3 5.2 6.2 11.3 9.2 19.2q0.1 0.3 0.2 0.5l1.6 4.8 0.8 2.5q0.1 0.3 0.2 0.7c0 0 2 7.7 2 7.8q0.5 1.9 0.9 3.9l0.3 1.6c0.7 3.5 1.2 7 1.7 10.4l0.3 2.3c0.2 1.5 0.3 3.1 0.4 4.5q0.1 0.9 0.2 1.7v0.8q1.4 1.6 2.8 3.5c2.3 3.2 4.1 6.3 5.5 9.5q2 4.5 2.7 8.8c0.3 1.6 0.5 3 0.5 4.5 0.2 2.9-0.2 6-1.2 9-0.7 2.2-1.7 4.2-2.5 5.7l-1.9 3.5-1.7 3.2q-0.8 1.6-1.6 3-0.9 1.6-1.7 3.1c-0.8 1.5-1.6 3.2-2.3 4.8-1.2 2.9-2.1 5.9-2.6 8.9q-0.4 2.2-0.6 4.5c1.6 3.9 3 7.9 4 11.9 2 7.9 2.5 15.1 1.7 22.1-0.6 4.5-1.8 8.9-3.5 12.7q-0.1 0.1-0.1 0.2c-1.7 3.5-3.8 6.9-6.3 9.9q0 0.1-0.1 0.2c-2.4 2.9-5.1 5.4-8.1 7.6-4.4 4.7-10.6 8.1-17.3 9.4-2.4 0.5-5.1 0.8-7.9 0.8q0 0-0.1 0c-3.8 0-7.9-0.5-12.4-1.5-0.1 0-3-0.8-3-0.8l-1.8-0.4h-0.8q-0.5-0.1-1-0.1c-0.5 0-0.7 0-0.7 0q0 0.1-0.1 0.1l-0.2 0.1-0.4 0.5q-0.4 0.4-0.5 0.6c0.2 0.6 0.9 1.9 2.4 3.6l1.3 1.5 0.8 0.9q1.3 1.4 2 3.2c0.6 1.6 0.9 3.5 0.8 5.2 0 0-0.2 2.3-0.2 2.3l-0.1 1.5c-0.1 1.5-0.3 2.9-0.5 4.3-0.4 2.8-0.9 5.7-1.5 8.6-2.4 10.4-5.9 19.6-10.6 27.3-1 1.8-2.3 3.7-3.9 5.9-0.1 0.1-0.4 0.4-0.4 0.4q-1 1.3-2 2.4c-0.1 0.1-1.7 2-1.8 2-0.3 0.3-0.6 0.6-0.9 0.9 0 0-0.9 0.9-1.1 1.1-0.9 0.9-2.1 2-3.5 3v0.1c-1.1 0.8-2.2 1.7-3.4 2.5q-1.5 1-3 2l-1.4 0.9q-0.8 0.6-1.7 1-2 0.8-4.1 1-0.6 0.1-1.3 0.1c-2.8 0-5.6-1.1-7.7-3-0.1 0.1-3.8 2.2-3.8 2.2 0 0-1.1 0.6-1.2 0.7-0.9 0.5-2.8 1.6-5.5 1.8q-0.5 0.1-1.1 0.1c-2.1 0-4.2-0.6-6-1.7 0 0-1.4 0.8-1.5 0.9 0 0-6.2 3.8-6.3 3.8l-0.7 0.4c-1.8 1-3.7 1.5-5.7 1.5z"/><path fill-rule="evenodd" class="c" d="m504.1 516.7c-0.9 0-1.8-0.2-2.5-0.7-0.7-0.5-1.2-1.1-1.6-1.8-0.3 0.7-0.9 1.3-1.6 1.8-0.7 0.5-1.6 0.7-2.5 0.7-0.8 0-1.6-0.1-2.3-0.5l-0.7-0.5-2.7-1.6-3.5-2.1-3.6-2.4q-0.2-0.1-0.3-0.1c0 0-2.5-1.9-2.6-1.9 0 1-0.4 2-1.2 2.7-0.8 1-2.1 1.5-3.3 1.5q-0.2 0-0.5 0c-1.1-0.1-2-0.6-2.6-1l-1.9-1c0 0-3.1-1.8-3.2-1.8 0 0-3.4-2.2-3.4-2.2l-2.4-1.7q-0.5-0.3-1-0.7l0.2 1c0.4 1.6-0.1 3.2-1.3 4.3-0.8 0.8-2 1.3-3.2 1.3q-0.3 0-0.6-0.1c-0.5 0-1.2-0.1-2-0.4q-0.3-0.2-0.7-0.4l-1.4-0.9q-1.5-1-2.9-2c-1-0.7-2-1.5-3-2.2l-0.2-0.2c-1-0.7-1.9-1.6-2.7-2.4-0.3-0.3-1.2-1.1-1.2-1.1q-0.4-0.4-0.7-0.7l-1.5-1.7c-0.7-0.8-1.3-1.6-2-2.4 0 0-0.1-0.1-0.1-0.2-1.5-1.9-2.7-3.6-3.6-5.3-4.3-7-7.6-15.5-9.7-25.2-0.6-2.7-1.1-5.4-1.5-8q-0.2-2-0.4-4l-0.2-1.3c0 0-0.1-2.3-0.1-2.3q-0.1-1.2 0.3-2.3 0.3-0.6 0.8-1.2l0.7-0.8 1.2-1.4c2.6-2.8 4.1-5.5 4.3-7.7q0.2-1.5-0.4-2.9c-0.4-1.1-1.3-2.2-1.9-3l-0.7-0.7c-0.1-0.1-0.8-0.7-0.8-0.7q-0.3-0.3-0.5-0.5-0.9-0.4-1.7-0.6-0.1 0-0.2-0.1-1.1-0.3-2.6-0.3-0.8 0-1.7 0.1l-1.2 0.2-2.3 0.5-2.8 0.7c-4.1 0.9-7.7 1.3-11 1.3q-3.6 0-6.7-0.6c-5.2-1.1-10.3-3.9-13.8-7.6q-0.1-0.1-0.3-0.3c-2.6-1.9-5.1-4.2-7.3-6.8q-3.3-4.1-5.5-8.6c-1.4-3.3-2.5-7-2.9-10.8-0.7-6.2-0.3-12.6 1.4-19.6q1.7-6.3 4.4-12.3c-0.1-2.4-0.4-4.8-0.8-7.1-0.6-3.5-1.7-6.9-3-10.1-0.8-1.9-1.7-3.8-2.6-5.5q-0.8-1.6-1.8-3.2-0.7-1.4-1.6-2.9l-1.7-3.3-1.8-3.3c-0.7-1.4-1.5-3-2.1-4.8-0.7-2.1-1-4.4-0.9-6.6q0.1-1.6 0.5-3.4c0.4-2.4 1.1-4.8 2.2-7.3 1.2-2.8 2.8-5.4 4.8-8.2 0.9-1.4 1.9-2.5 2.8-3.7q0.5-0.5 1-1.1l0.3-2.8c0-0.7 0.1-1.3 0.1-1.9 0.1-1.4 0.3-2.8 0.5-4.3l0.3-2.2c0.4-3.2 0.9-6.6 1.6-10l0.3-1.6q0.4-1.8 0.8-3.6l2-7.7q0-0.1 0-0.2l0.8-2.5c0 0 1.7-4.9 1.7-5 2.9-7.6 5.7-13.4 8.7-18.2 3-5.2 6.5-9.6 9.2-13 1.8-2.5 3.6-4.8 5.4-7 7.8-9.4 16.7-17.3 26.2-23.6 1.8-1.3 3.9-2.5 5.8-3.7q1.1-0.6 2.1-1.2c0.1 0 2.2-1.2 2.2-1.2 2.1-1.1 4.3-2.2 6.6-3.2 2.4-1.2 4.9-2.2 7.4-3.2l1.5-0.6c1.2-0.4 2.2-0.8 3.3-1.1 0 0 4-1.4 4.1-1.4l2.3-0.7c12.4-3.6 26.3-5.6 41.1-5.6 14.8 0 28.7 2 41.1 5.6 0 0 2.5 0.7 2.5 0.7l3.9 1.4q1.6 0.5 3.2 1l1.7 0.7c2.4 1 4.9 2 7.4 3.2 2.3 1 4.4 2.1 6.5 3.2 0 0 2.1 1.2 2.2 1.2q1.1 0.6 2.1 1.3c2 1.1 4 2.3 5.9 3.7 9.5 6.2 18.3 14.1 26.1 23.4 1.9 2.3 3.6 4.6 5.4 7.1 2.7 3.4 6.2 7.8 9.3 13.1 2.9 4.7 5.7 10.5 8.6 18.1 0 0.1 1.7 5 1.7 5l0.8 2.5c0 0 0.7 2.7 0.7 2.7l1.3 5c0.3 1.4 0.6 2.6 0.8 3.8l0.3 1.6c0.8 3.4 1.2 6.8 1.6 10l0.3 2.3c0.3 1.4 0.4 2.8 0.5 4.2q0 0.9 0.1 1.8l0.3 2.9q0.5 0.6 1 1.1c0.9 1.2 1.9 2.3 2.8 3.7 2 2.8 3.6 5.4 4.8 8.1 1.1 2.6 1.8 5 2.2 7.4q0.4 1.8 0.5 3.5c0.1 2.1-0.2 4.4-0.9 6.5-0.6 1.8-1.4 3.4-2.1 4.7l-1.8 3.5-1.7 3.1q-0.9 1.6-1.6 3-1 1.6-1.8 3.2c-0.8 1.7-1.8 3.6-2.6 5.4q-2 5-3 10.2c-0.4 2.3-0.7 4.7-0.8 7.1 1.8 4 3.3 8.1 4.4 12.3 1.7 7 2.2 13.4 1.4 19.6-0.4 3.8-1.4 7.5-2.9 10.7q-2.2 4.6-5.4 8.6-3.4 4-7.4 6.9l-0.3 0.3c-3.5 3.7-8.6 6.5-13.8 7.6-2.1 0.4-4.3 0.6-6.7 0.6-3.3 0-7-0.4-10.9-1.3l-3-0.8-0.7-0.1-1.5-0.3-1.3-0.2c-0.5 0-1-0.1-1.6-0.1q-1.5 0-2.6 0.3-0.1 0.1-0.2 0.1-0.8 0.2-1.7 0.6-0.2 0.2-0.3 0.4c0 0-0.8 0.7-1 0.8l-0.8 0.8c-0.5 0.7-1.4 1.8-1.8 2.8-0.4 1-0.5 2-0.4 2.9 0.2 2.3 1.8 5 4.3 7.8l1.2 1.3 0.7 0.9q0.5 0.6 0.8 1.3c0.3 0.7 0.4 1.5 0.3 2.2 0 0-0.1 2.2-0.1 2.2l-0.1 1.3q-0.2 2.1-0.5 4.1c-0.4 2.6-0.9 5.3-1.5 8-2.1 9.7-5.4 18.2-9.7 25.2-0.9 1.6-2.1 3.3-3.6 5.3l-0.2 0.4q-0.9 1.1-1.8 2.1l-1.5 1.7q-0.4 0.4-0.8 0.8c0 0-0.9 0.8-1.1 1.1-0.9 0.8-1.8 1.7-2.8 2.4l-0.2 0.2c-1 0.7-2 1.5-3 2.2-0.9 0.6-1.9 1.3-2.9 2l-1.4 0.9q-0.3 0.2-0.7 0.4c-0.8 0.3-1.5 0.4-2 0.4q-0.3 0.1-0.6 0.1c-1.2 0-2.3-0.5-3.2-1.3-1.2-1.1-1.7-2.7-1.3-4.3l0.2-1q-0.4 0.3-0.9 0.7c0 0-2.6 1.8-2.6 1.8 0 0-3.4 2.1-3.5 2.2l-4.8 2.7c-0.7 0.4-1.5 0.9-2.7 1q-0.2 0-0.5 0c-1.2 0-2.5-0.5-3.3-1.5-0.7-0.7-1.2-1.7-1.2-2.7l-2.6 1.9q-0.1 0.1-0.3 0.1l-3.5 2.3-6.2 3.8-0.8 0.5c-0.7 0.4-1.5 0.5-2.3 0.5zm-4.1-8.6l0.6-4.9 0.3-3.7c0-0.5 0-0.8 0-1.2v-1.1q-0.1-1.9-0.2-4-0.4-0.7-0.7-1.4-0.3 0.7-0.6 1.4-0.2 2.1-0.3 4.1v0.8c0 0.6 0 0.9 0 1.3l0.3 3.8z"/><path class="d" d="m500 650.7c-49.7-45.1-92-91.5-125.7-137.8-27.7-38.1-49.7-76.3-65.3-113.5-22.1-52.5-25.1-87.8-25.5-98.2 17.1-12.6 113.8-80.5 216.5-80.5 102.7 0 199.3 67.8 216.5 80.5-0.4 10.5-3.5 46.4-25.9 99.2-15.7 37.1-37.7 75.2-65.4 113.2-33.6 46.1-75.7 92.2-125.2 137.1z"/><path fill-rule="evenodd" class="e" d="m709.4 304.6c-0.9 12.9-5.2 45.6-24.7 92.1-15.5 36.7-37.2 74.4-64.6 112.1-32.3 44.5-72.7 89.1-120.1 132.6-47.1-43.2-87.4-87.6-119.6-131.9-27.4-37.5-49.1-75.1-64.6-111.8-19.9-46.8-24.3-80-25.2-93.1 23.7-17.1 113.8-77.1 209.4-77.1 95.6 0 185.7 60 209.4 77.1zm-33.1 14.9c-32.4-20.9-104-61-176.3-61-72.3 0-144 40.1-176.3 61 2.7 14.9 8.3 37.1 20.2 65.2 14.5 34.5 35 70.2 61 105.9 26.3 36.2 58.2 72.5 95.1 108.3 36.7-35.6 68.4-71.7 94.6-107.6 26-35.7 46.5-71.2 61.1-105.6 12.1-28.5 17.8-51.1 20.6-66.2z"/><path class="f" d="m383.1 465l-22.5 9.5q4.4 7 9.2 13.9l22.6-9.5q-4.8-6.9-9.3-13.9z"/><path class="f" d="m564.3 264.3c13.1 3.5 27.5 8.3 43.1 14.7l30.4-12.7c-12.1-5.8-25.2-11.5-39.1-16.5z"/><path class="f" d="m340.7 386c-3.6-8.5-6.6-16.5-9.1-23.9l-22.3 9.3c2.7 7.8 5.9 16.2 9.6 25q0.7 1.6 1.4 3.2l22.2-9.3q-0.9-2.1-1.8-4.3z"/><path class="f" d="m648.7 409.2c-13.5 27.7-30.7 55.9-51.3 84.1-26.3 36-58.2 72.4-95 108l-2.4 2.3-2.4-2.3c-31.8-30.8-59.9-62.1-84-93.3l-22.9 9.7c30.2 39.9 66.9 79.9 109.3 119 46.2-42.6 85.7-86.3 117.3-129.9 27.2-37.4 48.8-74.9 64.1-111.3z"/><path class="f" d="m327.7 350.1c-3.7-12.3-6-22.4-7.4-30l-0.4-2.2 2-1.3c82.9-53.5 147.2-61.5 178.1-61.5 10.7 0 25.3 0.9 43.3 4.4l37.3-15.7c-25.4-7.7-52.8-12.8-80.6-12.8-92.1 0-178.9 56.1-205.8 75.2 0.8 9.4 3.3 27.8 11.2 53.3z"/><path class="f" d="m702 331l-27.5 11.6c-1.7 6.2-3.8 13-6.4 20.5l29.1-12.2c2-7.4 3.6-14 4.8-19.9z"/><path class="a" d="m390.7 829.5q0-42.4 0.1-84.7-5.9 0.7-11.7 1.5 0-32.4 0-64.7 42.9 0 85.7 0 0 28.7-0.1 57.4-6 0.2-11.9 0.5-0.1 38.8-0.3 77.6c-20.8 2.4-41.5 6.5-61.8 12.4z"/><path class="a" d="m423.6 821.6q0.3-70 0.6-140 40.8 0 81.6 0 0 28.5 0.1 56.9-2 0-4.1 0 0 9.7 0 19.3 2.1 0.1 4.1 0.1 0 28.4 0 56.9c-27.5-0.7-55.1 1.5-82.3 6.8z"/><path class="a" d="m460.8 816.3c5.9-45.4 11.8-90.2 17.7-134.7q30.9 0 61.9 0c5.9 45.2 11.8 91.2 17.8 138.2-32.2-5.3-64.9-6.5-97.4-3.5z"/><path class="a" d="m514.4 815.1q-0.1-66.7-0.2-133.5 49.1 0 98.3 0 0 75.7 0 151.4c-32-10.3-65-16.2-98.1-17.9z"/><path class="a" d="m439.5 705.6q-0.1 6.6-0.1 13.3-5.9 0.1-11.8 0.3-0.2 41.1-0.4 82.1-5.6 1.3-11.1 2.9 0.1-42.3 0.2-84.6-5.9 0.3-11.8 0.5 0-7.3 0-14.5 17.5 0 35 0z"/><path class="a" d="m476.3 742.8q0 6.3 0 12.6-7.8 0.3-15.6 0.8-0.1 13.2-0.1 26.3 9.8-1 19.7-1.4 0 6.3 0 12.6-15.7 0.8-31.2 3.3 0.2-45.7 0.5-91.4 15.4 0 30.8 0 0 6.2 0 12.5-9.8 0.1-19.6 0.3 0 12.5-0.1 25 7.8-0.4 15.6-0.6z"/><path fill-rule="evenodd" class="a" d="m518.1 794.1q-1-8.1-2-16.2-7.1-0.4-14.1-0.5-1 7.9-1.9 15.9-5.3-0.1-10.6 0c3.9-29.3 7.8-58.5 11.6-87.7q8.3 0 16.6 0c3.9 29.5 7.9 59.3 11.9 89.6q-5.8-0.7-11.5-1.1zm-3.6-28.3q-2.8-22.4-5.6-44.7-2.7 22.3-5.4 44.4 5.5 0.1 11 0.3z"/><path class="a" d="m571.3 705.6q7.9 0 15.8 0 0 51 0 102.1-5.2-1.7-10.5-3.2-0.1-35.5-0.1-71c-2.6 23.5-5.1 46.4-7.6 68.9q-5.3-1.3-10.6-2.5c-2.9-22.8-5.8-45.2-8.8-67.2q0.2 32.8 0.4 65.5-5-0.9-9.9-1.6-0.3-45.5-0.5-91 7.9 0 15.8 0c2.9 22.2 5.7 44.8 8.6 67.9 2.5-22.2 4.9-44.8 7.4-67.9z"/><path class="a" d="m371.6 763.7v-228.9l128.4 74.2 128.4-74.2v228.9l-128.4 74.1z"/><path class="d" d="m622.4 760.2l-122.4 70.7-122.4-70.7v-215l122.4 70.7 122.4-70.7z"/><path fill-rule="evenodd" class="d" d="m276.3 722.9c-17.7 4.5-32.5 1.2-41.9-10.5-7.8-9.8-11.6-24.6-11.6-44.8q0-50.5 0-100.9c0-20.3 3.9-36.3 11.8-48.5 9.6-14.6 24.8-22.2 42.7-22.2 17.9 0 33 7.4 42.5 20.2 7.9 10.8 11.7 24.6 11.6 42.5q-0.3 44.8-0.6 89.5c-0.1 18-4.1 32.4-12.1 44.8-9.6 14.8-24.7 25.3-42.4 29.9zm11.9-62.5z"/><path class="d" d="m301.9 714.7c9.4-74.2 18.9-146.3 28.3-216.7q35.7-0.1 71.3-0.1c8.7 66.9 17.5 132.9 26.3 198.3-42.2 3.2-84.3 9.4-125.9 18.5z"/><path class="d" d="m400.5 698.7q0.6-100.4 1.1-200.8 67.7-0.1 135.4-0.1 0.3 98.5 0.5 196.9c-45.7-2.1-91.4-0.8-137 4z"/><path class="d" d="m518.8 694q-0.1-98.1-0.3-196.2 33 0 65.9 0.1 0.5 100.2 1 200.4-33.2-3.4-66.6-4.3z"/><path class="d" d="m566.5 696.6q-0.4-99.4-0.8-198.7 56.6 0 113.1 0.1 0.7 107.5 1.3 215c-37.6-7.9-75.5-13.4-113.6-16.4z"/><path fill-rule="evenodd" class="d" d="m713.8 722.9c-17.7-4.6-32.8-15.1-42.4-29.9-8-12.4-12-26.8-12.1-44.8q-0.3-44.7-0.6-89.5c-0.1-17.9 3.7-31.7 11.7-42.5 9.4-12.8 24.5-20.2 42.4-20.2 18 0 33.1 7.6 42.7 22.2 8 12.2 11.8 28.2 11.8 48.5q0 50.4 0 100.9c0 20.2-3.8 35-11.6 44.8-9.4 11.7-24.2 15-41.9 10.5zm-10.7-62.3z"/><path class="g" d="m262.8 711.1c-7.1 0-12.9-2.7-17.3-8.1-5.9-7.3-9-19.4-9-36.1v-101.9c0-16.6 3.1-29.6 9-38.5 6.2-9.3 15.4-14.1 27.3-14.1 11.8 0.1 20.9 4.4 27.2 13.1 6 8.4 8.9 19.8 8.9 35l-0.2 20.3-2.9 0.2q-10.5 0.9-20.9 1.8l-3.5 0.3 0.1-23.2c0-6.2-1.1-10.6-3.2-12.7-1.1-1.1-2.5-1.7-4.5-1.7h-0.3c-2.3 0.1-8.4 0.3-8.4 15.9l-0.3 102.3c0 7.9 1.7 10.8 2.7 11.8 0.6 0.7 1.4 1 2.6 1q0.9 0 2-0.3c2.2-0.5 8.9-2.1 8.9-17.3l0.2-30c-2.1 0.3-10 1.6-10 1.6l0.1-33.2 2.8-0.4c10.2-1.2 20.6-2.4 31-3.5l3.6-0.4-0.4 60.2c-0.1 15-3 27.1-9.1 36.8-6 9.8-14.8 16.3-26.2 19.5-3.6 1.1-7 1.6-10.2 1.6z"/><path fill-rule="evenodd" class="g" d="m320 691.4c7.5-56.3 15.2-113.3 23.7-174.2l0.4-2.8 38.1-0.1 0.4 2.8c7 53.9 14.3 108.3 21.6 161.8l0.4 3.2-3.3 0.4c-7.4 0.9-14.9 1.8-22.4 2.9l-3.2 0.4c0 0-2.6-20.7-3.7-29.4-7.1 0.8-14.4 1.8-21.5 2.8-1.3 9.7-4 31.4-4 31.4l-2.4 0.4c-6.7 1.3-13.5 2.6-20.2 4l-4.5 1zm41.7-118.3q-3.7 27.9-7.4 56.2 7-0.9 14-1.6-3.3-27.1-6.6-54.6z"/><path class="g" d="m418.9 514.3l36.9-0.1 0.4 2.8c4.1 28.7 8.4 58.5 12.8 88.8q6.1-44.5 12.2-88.8l0.4-2.8h36.9l0.2 163.4-3.3-0.1c-6.8-0.2-13.7-0.3-20.5-0.3h-3.9v-68q-4.5 32.7-9 65.4l-0.4 2.7-2.8 0.1c-7 0.1-14.1 0.4-21.1 0.7l-2.9 0.1-0.5-2.9c-3.4-22.9-6.7-45.5-9.9-67.8l-0.3 71.3-3.1 0.2c-6.4 0.4-13 0.9-19.4 1.5l-3.6 0.3z"/><path class="g" d="m564.1 680.1c-7.4-0.6-14.9-1.1-22.3-1.5l-3.1-0.2-0.5-164.2 28.6 0.1 0.8 166.1z"/><path class="g" d="m660.4 693.9c-7.5-1.6-15.1-3-22.6-4.3l-2.2-0.4-0.4-2.1c-7-30.9-14.2-62.3-21.9-95.4l0.6 94.1-3.7-0.5c-6.6-1-13.4-1.8-20-2.6l-2.9-0.3-1-168.1h33.6l0.6 2.5c6 25.2 11.6 49.1 16.9 72.4l-0.5-74.8h26.2l1.2 180.3z"/><path class="g" d="m727.1 711.1c-3.1 0-6.6-0.5-10.2-1.6-11.3-3.2-20.2-9.7-26.2-19.5-6-9.7-9-21.8-9.1-36.8l-0.5-92.7c-0.1-15.2 2.8-26.6 8.8-35 6.3-8.7 15.5-13 27.2-13.1 12 0 21.1 4.8 27.3 14.1 6 8.9 9 21.9 9 38.5v22.6l-3.6-0.4q-10.4-1.1-20.8-2.1l-2.9-0.3v-23.2c-0.1-15.7-6.4-15.9-8.4-16h-0.4c-1.9 0-3.4 0.5-4.5 1.6-2.1 2.1-3.2 6.5-3.1 12.8l0.4 99.1c0.1 15.2 6.7 16.9 8.9 17.4q1.2 0.3 2.1 0.3c1.1 0 1.9-0.3 2.6-1 1-1 2.6-3.9 2.6-11.8l-0.1-32.2q-3.6-0.6-7.2-1.2l-2.7-0.5-0.2-33.1 3.7 0.4c10.2 1.3 20.6 2.7 30.8 4.1l2.8 0.4v65c0 16.7-3 28.8-9 36.1-4.4 5.4-10.2 8.1-17.3 8.1z"/><path class="h" d="m305.5 596.8q-0.2 28.3-0.3 56.6c-0.1 14.5-3 26.1-8.6 35.2q-8.5 13.6-24.4 18c-10.5 2.9-18.5 1.2-24-5.6-5.6-6.8-8.3-18.2-8.3-34.1q0-51 0-101.9c0-15.9 2.8-28.3 8.4-36.7 5.7-8.5 13.9-12.6 24.6-12.6 10.8 0 18.9 4 24.5 11.7 5.6 7.8 8.4 18.7 8.3 33.2q0 8.7-0.1 17.3-10.4 0.8-20.9 1.8 0.1-9.9 0.1-19.7 0.1-18.1-11.4-17.7-11.4 0.4-11.5 19.2-0.1 51.1-0.2 102.3c-0.1 12.3 3.7 17.5 11.2 15.7 7.6-1.8 11.4-8.5 11.5-20.4q0-16.9 0.1-33.8-5 0.7-10 1.5 0.1-13.3 0.1-26.6 15.4-1.8 30.9-3.4z"/><path fill-rule="evenodd" class="i" d="m378.6 682.8q-1.8-14.7-3.7-29.6-13.6 1.6-27.2 3.6-2 15.7-4.1 31.5-10.1 1.9-20.3 4c7.9-59.8 15.8-117.9 23.8-174.7q16.2 0 32.4 0c7.1 55 14.3 109.1 21.6 162.4q-11.3 1.2-22.5 2.8zm-6.5-51.7q-5.1-41.5-10.1-83.8-5.7 42.6-11.3 86.1 10.7-1.3 21.4-2.3z"/><path class="j" d="m484.5 517.5q15.4 0 30.8 0 0.1 78.8 0.3 157.5-10.6-0.2-21.2-0.2 0-56.4 0-112.8c-5.2 37.6-10.3 75.2-15.5 112.9q-10.7 0.2-21.3 0.7c-5.4-37-10.8-74.2-16.2-111.5q-0.2 56.2-0.5 112.4-9.7 0.6-19.5 1.5 0.4-80.3 0.8-160.5 15.4 0 30.9 0c5.3 37.5 10.6 74.7 16.1 111.9 5.1-37.4 10.2-74.7 15.3-111.9z"/><path class="k" d="m563.7 517.5q0.4 80.1 0.8 160.1-11.2-0.9-22.4-1.5-0.3-79.3-0.6-158.6 11.1 0 22.2 0z"/><path class="l" d="m610.7 682.7q-10-1.4-20-2.5-0.5-81.3-1-162.7 13.9 0.1 27.8 0.1c7.8 33.2 15.6 67 23.5 101.7q-0.4-50.8-0.8-101.7 9.9 0 19.8 0.1 0.6 86.7 1.2 173.4-11.4-2.2-22.8-4.2c-9.5-42.4-19-83.6-28.5-123.8q0.4 59.8 0.8 119.6z"/><path class="m" d="m750.2 604.7q0 31.1 0 62.2c0 15.9-2.7 27.3-8.2 34.1-5.5 6.8-13.6 8.5-24.1 5.6q-15.9-4.4-24.4-18c-5.6-9.1-8.5-20.7-8.5-35.2q-0.3-46.4-0.6-92.8c-0.1-14.5 2.7-25.4 8.3-33.2 5.6-7.7 13.7-11.7 24.5-11.7 10.7 0 18.9 4.1 24.6 12.6 5.6 8.4 8.4 20.8 8.4 36.7q0 9.5 0 19-10.3-1.1-20.8-2.1 0-10.2 0-20.4 0-18.7-11.5-19.1-11.5-0.4-11.4 17.7 0.2 49.6 0.5 99.2c0 11.9 3.8 18.7 11.4 20.5 7.5 1.8 11.3-3.4 11.2-15.7q0-17.5 0-35-5-0.8-10-1.6-0.1-13.4-0.1-26.8 15.4 1.9 30.7 4z"/><path class="d" d="m399.5 820.7q0.1-42.2 0.2-84.4-5.9 0.6-11.8 1.3 0-23.7 0-47.3 34.1 0 68.1 0 0 21.1-0.1 42.1-6 0.2-11.9 0.6-0.2 39.1-0.3 78.2c-14.9 2.2-29.6 5.4-44.2 9.5z"/><path class="n" d="m404 814.7q0.3-61.3 0.5-122.7 32 0 64 0 0 20.6 0 41.3-2 0-4 0 0 17.2 0 34.5 2-0.1 4-0.1 0 20.7 0 41.3c-21.6-0.1-43.2 1.9-64.5 5.7z"/><path class="d" d="m470.8 808.2c5.2-39.6 10.4-78.8 15.5-117.9q23.1 0 46.2 0c5.2 39.7 10.5 79.9 15.8 121-25.7-3.9-51.7-4.9-77.5-3.1z"/><path class="d" d="m441.3 814.4q-0.2-59-0.3-118.1 40.3 0 80.7 0 0 67 0 134c-26.3-8.5-53.2-13.8-80.4-15.9z"/><path class="o" d="m429.8 714.4q0 0.5-0.4 1-0.5 0.5-2 1-1.7 0.8-2.2 1-0.9 1-3.1 2.5h-0.7l-0.7-1.4q-4.6-4.3-8.8-4.3-3.4 0-6.8 2.9-0.4-0.2-1.4-0.3l-0.4-1.4q-0.2-0.1-0.5-0.1-0.2 0-0.9 0.3-0.7 0.3-0.7 0.4 0 0.3 0.4 0v1.4h-1q-0.5-1.5-0.7-2.4h-1.1q-0.1-0.2 0-0.6 0.1-0.6 0.1-0.7 0-0.3-0.1-0.4h-1q0-0.4-0.4-1 0.4-0.5 1.1-0.9 0.8 0.2 0.8 1 0 0.2 0.6 0.2l-0.4-0.3v-1.1q0.8 0.1 1.2 0.1l-0.8-0.1v-1.8q1-0.2 3.1-0.6 1.5 0 3-0.4 0 0-2-1 5.1-1.5 8.9-1.5 8.2 0 12.7 3.3 4.2 3.1 4.2 5.2zm-27 1.5q0 0.2-0.5 0.5l-0.1-0.4q0-0.4 0.3-0.4 0.3 0 0.3 0.3zm-6-3.2q0 0.2-0.4 0.6-0.1 0.1-0.4 0.1-0.2 0-0.2-0.2 0.3-0.7 0.9-0.7 0.1 0 0.1 0.2zm0 1.7q0 0.2-0.4 0.6-0.1 0-0.2 0-0.1 0.1-0.2 0.1-0.2 0-0.2-0.2 0.3-0.6 0.9-0.6 0.1 0 0.1 0.1zm34.7 25.3v4.2q-0.3 0.2-1.1 1v-1q-0.9-0.1-1.4-0.4 1.7-0.9 1.7-1-0.3-0.2-1.3-0.4v-1.1h-1.1q0 0 0 0.6l-0.3 0.2v0.3h-0.2q-0.2 0-0.2-0.3 0-0.3-0.3 0l-1-1.8h-0.3q-0.6 0-0.6 0.2 0 0.1 0.2 0.2-0.3 0.1-0.8 0.2-0.2 0.1 0.1 0.1h-0.7q-0.1-0.6-0.4-1.7h-0.7q0.6 1 1.3 2 0.8 1.5 0.8 2.1-0.5 0.4-0.7 1.1 1.1 0.3 3.1 1.1l1.1 1.3q0.2 0.1 0.6 0 0.4-0.1 0.5-0.1l0.3 0.1q-0.1 0.3-0.1 0.6 0.1 0.5 0.1 0.6 0 0.5-0.6 0.6-0.7 0.1-0.8 0.3-0.4 0.4-0.7 1.6-0.2 1.2-0.7 1.6-0.5 0-1.4 0.3-0.3 0.2-0.7 0.8-0.3 0.8-0.7 1-0.4 0.1-1.2 0.1-0.9 0-1.2 0.2-2 0.6-3.9 1.3-1.7 0.5-4.4 0.5-4.3 0-5.6-0.5l-1-1-0.7 0.7-0.4-0.7q-0.5-0.2-2.8-0.7-1.9-0.4-2.7-1-0.2-0.4-0.7-1-0.3-0.3-1.1-0.4-0.7-0.1-1-0.4-0.5-0.3-1.1-1.1-0.6-1-1-1.3v-0.1q0-0.1 0.2-0.3 0.3-0.3 0.3-0.4 0-0.3-0.4-0.3-0.4-0.1-1 0-0.6 0.1-0.6 0.1l-0.2-0.1q-0.3-0.3-1.1-1 0.4-0.2 0.7-1 0.1-0.3 1.3-0.3 0.3 0 0.6-0.7 0.4-0.6 0.5-0.7 0.5-0.4 1.4-0.6 1-0.3 1.4-0.5 0.4-0.3 0.5-0.8 0.1-0.2 1.1-0.2h0.2v-0.8q0.5 0 1.4-0.3 0.5 1.1 1.3 2.4 0.5 0.1 1.4 0.4 0.3 0.5 1.1 1.4 1.4 1.1 5.2 2.1l0.7 0.6 0.6 0.1q2.7 0.2 4.6-0.7l0.7-1q1.8-1.4 2.8-4.2l-1.1-0.8q0-0.5-0.3-1.6-0.9-1.9-6.3-3.9v-0.7q0.9-0.2 1.8-0.4 0.6-0.2 1.7-1.3 1.3-0.1 2.1 1.7 0.2 0.1 0.7 0.1 0.3 0 0.8 0 0.6-0.1 0.9-0.1v-0.7q-0.2-0.1-1-0.7-0.3-0.3-1.5-0.3h-0.3l0.4-1.1q-0.7-0.3-0.7-0.3-0.5 0-0.7 0.7-1.1 0.4-4.8 0.4h-0.4q0 0.1 0.7 0.7 0 0-0.3 0.5-0.1 0.4-0.1 0.8h-1q-0.2 0-1.5-0.8-1.3-0.7-2.7-0.7-0.3 0-1-0.2l-0.4-0.7q0.2 0.1-1.4 0.1-0.5 0-1.4-1.1-0.5-0.3-1-0.2-0.8 0.2-0.9 0.2-0.3 0-1.1-0.6-1-0.8-1.1-0.8 0.4-0.4 0.4-0.8 0-0.2-0.1-0.3h-1.4v-1l-1-0.4q-0.8-0.7-1.3-4.6-0.4-3-0.4-5.1 0 0-0.6 0-0.1 0-0.1-0.4l1-0.6q0-0.4 0-1.2v-0.6h0.4v1q0.5 0.2 1.5 0.4 1.1 0.2 1.6 0.4-0.1 0.2-0.1-0.8 0-0.2 0.4-0.3 0.2 0.7 0.2 1.3l-0.2 0.4q0.6 0.4 1 0.6 0.5 0.4 0.4 1.2h0.7q0.6-0.7 0.9-0.7h0.2l0.3 1q0.3 0.3 0.9 0.3 0.6 0 0.8 0.1v0.7q-0.3 0-1.7-0.3v0.5q0 1.6 0.7 1.6 0.4 0 0.6-0.4 0.3-0.3 0.4-0.4l-0.4-0.3q0.4-0.4 1-0.4h0.1q0.2 0.7 0.2 1.1 0 0.8-0.5 0.3v0.7q1.9-0.5 2.2-0.5-0.1 0.4-1.5 0.9v0.3q2.4 0.4 4.5 1.4v1.4q-0.1 0-0.4-0.2-0.2-0.3-0.3-0.3-0.5 0-0.7 0.6-0.1 0.5-0.3 0.6-0.2 0.1 1.6 0.1 0.6 0 1.1-0.6 0.5-0.6 0.9-0.6h0.2v0.8h1l0.4 0.6q0 0 0.4-0.1 0.4 0 0.4-0.1 0-0.1-0.1-0.1 0.5-0.1 0.5-0.2 0-0.3-0.9-0.5-0.1-0.2-0.7-1.4h-1v-0.7q4.4 2.1 8 3.1 0.7 0 2 0.4 0.2 0.4 0.7 1 0.4 0.2 1.1 0.4 0.7 0.2 1 0.3 1.4 0.8 4.2 4.2h0.7q1.4 2.7 2.1 5.9-0.1-0.1-0.1-0.1 0.1 0 0.1 0.1zm-11.6-30q-0.2-0.3-0.7-0.3-0.5 0-1.1 0.5-0.6 0.4-0.6 0.9 0.2 0.2 0.7 0.2 0.6 0 1.1-0.4 0.5-0.3 0.6-0.9zm-3.1 1.2q0-0.1-0.5-0.6-0.4-0.5-0.5-0.6 0-0.2 0-0.3v-0.6h-1q0.1 0.1 0.1 0.2 0 0.1-0.8 0.1 0.5 0.7 1 1.3 0.5 0.5 1.5 0.5 0.2 0 0.2 0zm2.5 2v-0.6q-0.6-0.2-1.7-0.8-0.2 0.6-1.1 1.8 0.2 0 0.8 0.2 0.6 0.2 0.9 0.2 0.3 0 0.4-0.1 0-0.6 0.7-0.7zm-3.8-1.4q-0.4-0.3-1-0.3v0.7q1 0 1-0.4zm-2.1-1.4q0-1-1.3-1-0.2 0-0.2 0.2 0 0.3 0.5 1.2h-2.8q-0.1 0.4-0.2 0.8-0.1 0.3-0.7 0.6 0.3-0.1 0.6-0.1 0 0 0.6 0.1l-0.3 0.7q2.1 0 2.1 0l0.1-0.3q0 0 0.3 0h0.3q0-0.9 0-1.8l0.4 0.1q0.6 0 0.6-0.5zm-7.4 2.4q-0.1-0.1-0.3-0.1-0.3 0-0.6 0.2v0.7q-1 0.3-1 0.8 0.1 0 0.4 0 0.5 0 1-0.5 0.5-0.6 0.5-1.1zm-3.4-0.2q-0.3-0.4-1-0.4v0.7q1 0 1-0.3zm20.9 21.5q-0.1-0.1-0.1-0.5 0-0.3-0.3-0.3-0.7 0-0.7 0.3 0 0.2 1.1 0.5zm-0.6 2.7q-0.3-0.8-0.8-1l0.3 1q0.2 0.1 0.4 0.1 0.2 0 0.1-0.1zm-6-5.6q0-0.7-1.4-2 0.2 0 0.2-0.3 0-0.3-0.2-0.7-0.7 0.1-1.4 0 0.3 0.2 0.3 0.9l-0.3 0.5q0 0 0.9 0h0.1v0.7q-0.3-0.2-0.4-0.2-0.2 0-0.2 0.2 0 0.5 0.6 1 0.6 0.4 1.1 0.4 0.7 0 0.7-0.5zm-3.5 0.8q-0.6-0.2-0.8-0.6 0-0.2 0.4-0.6 0-0.2-0.4-0.2h-0.2l-0.4 0.7q-0.6-0.2-0.7-0.5l0.8 0.5q0 0.1-0.8 0.4 0.7 0 2.1 0.3zm-11.6-10.2q-0.1-0.2-0.6-0.2-0.7 0-0.7 0.2 0 0.1 0.5 0.3 0.4 0.2 0.6 0.2 0.2-0.4 0.2-0.5zm-1.7-1q-0.2-0.1-0.6-0.2l0.4-0.8q-1.8 0-1.8 0 0 0.4-0.2 1.3-0.1 0.7-0.1 1.2 0.2-0.1 0.4 0 0.3 0 0.4 0h0.2v-1.1q0.7-0.1 1.3-0.4zm10.9 12.3q-0.3-0.3-0.2-0.6 0.1-0.7 0.1-0.6-0.2-0.2-0.8-0.2h-0.2l-0.3 0.6h-0.2q-0.6 0-0.9 0.4 0.9 0.1 2.5 0.4zm-9.7-6q0-0.5-0.7-0.7v-0.6h-0.7v0.6l1 0.8h0.3q0.1 0 0.1-0.1zm6.2 4.2v-0.7q-0.4 0-1.3 0-0.9 0.1-1.3 0.1-1.2 0-2.6-0.4l0.7 1q0.8 0.3 1.7 0.3 0.5 0 1.4-0.2 1-0.1 1.4-0.1zm-4.4-3q-0.3-0.5-1.1-0.5-0.3 0.6-0.3 1.1l0.3 0.7q1.1-0.8 1.1-1.3zm-3.9-2.7q0-0.2-0.4-0.2l0.4 0.7q0 0.2 0-0.5zm2.4 4.6l-0.3-0.6-0.4-0.1q-0.1 0-0.7 0.1-0.4 0.1-0.7 0l1.4 1h0.1q0.6 0.1 0.6-0.4zm18.5 20.5q-0.5-0.2-1.5-0.3v0.4q1.2 0 1.5-0.1zm-1.2-1q-0.3-0.4-1-0.4v0.8q1 0 1-0.4zm2.5 2.8v-0.7q-2.4-0.3-3.8-1 0.3 0.6 0.6 1.4 0.5 0.9 1 0.9 0 0 2.2-0.6zm-5.9-1.1h1l-0.7-1h-1zm-4.1-2.1q0-0.5-1.4-1l0.3 1q0.4 0.2 0.7 0.2 0.4 0 0.4-0.2zm2.9 5.8v-0.9q0.1-0.9-0.1-1.4h-1.1v-1.4h-0.3q0.4-0.3 0.5-0.4 0.1-0.2 0.2-0.6-0.2-0.1-1.1-0.4l0.4-0.7h-1.1q0.2 0.5 0.3 0.8 0.2 0.3 0.8 0.6v0.1q0 0.3-1.1 0.3-0.3-0.7-0.7-0.7v0.3l-0.2-0.1q-0.2 0-0.2 0.4l0.1 0.4h1.4q0.3 1.1 1.4 3.1h0.7q0 0.6 0.1 0.6zm-13.2-8.9q0-0.4-0.6-0.4-0.5 0.1-0.5 0.2 0 0.1 1 0.6 0.1-0.3 0.1-0.4zm-1.3 0.5q-0.4-0.8-0.9-0.8v1l0.5 0.1q0.4 0 0.4-0.3zm76.3-30.9q-1.8 0.2-4 0.3-1.6 0-4.1 0-3.1-0.1-4-0.1-2 0-3 0.1 0.6 2.8 0.6 3.5 0 2.3-3.1 3.9l0.3 0.1q0.1 0 0.3-0.2 0.3-0.3 0.5-0.2l2.1 1v8.1h-0.7q0 0.3 0.4 0.5 0.3 0.1 0.6 0.2-0.2 1.8-0.7 5.3h-0.5q-0.2-0.1-0.7 0.1-0.4 0.2-0.5 0.3-0.5-0.9-1.8-2.5-0.1 0.1-0.4 0.3-0.2 0.1-0.4 0.1h-0.2l-1.1-1.1q-0.6 0-0.7 0.5-0.2 0.6-0.5 0.6-0.3 0-0.8-0.4-0.6-0.3-1.2-0.3-0.3 0-1.4 0.5-1 0.5-1.3 0.5-0.2 0-0.4-1l0.3-1.1q-0.4-3.2-0.4-7.4 0 0 0.4-11.3h1.1q0-0.2 0-0.4 0-0.1-0.1-0.7 0-0.4 0.1-0.6l-1.8 1.4v0.3q-0.8 0.3-2.1 0.2-2.2-0.2-2.1-0.2-0.3 0-0.9 0.2-0.6 0.1-0.9 0.1l-1-0.3q-2.6 0.3-6.7 0.3 0.4-0.3 0.4-1.2 0-0.9-0.4-2.6-0.4-1.7-0.4-2.5 0-0.8 0.4-1-0.2-0.7-0.7-2.2 1 0 3.1-0.1 2-0.2 3-0.2h6.9q0 0.1-0.3 0.5-0.1 0.3-0.4 0.2 0.5 0.4 1.1 0.4l0.3-1.1q1.1 0 4.2-0.3 2.6-0.2 4.1-0.2 1.3 0 3.8 0.1 2.5 0.1 3.8 0.1v0.6h0.1q0.6 0 1.7-0.2 1.2-0.4 1.7-0.4v0.6h0.3q0 0.3 0-0.5 0-0.1 0.4-0.1 0 0.4 0.3 1l-0.3 2.8 1-0.3v-3.5h1.1l-0.4 1.4q0.3 0 0.6-0.2 0.3-0.2 0.3-0.2h0.2l0.7 0.7 0.5 0.1q1.9 0 1.6-0.1l0.4-0.7q-0.7-0.1-2.1-0.4v-0.6h3.5q-0.2 0.3-1.1 1.4 0 0-0.1 0.1 0 0.5 1.2 1.3 0.3 1.2 0.3 3.3-0.1 2.5 0 3.4zm-13.6 29.7q0 0-0.1 1.6l-0.7 0.4-0.1 0.6q0 0.7 0.3 2.1 0.3 1.4 0.3 2.1 0 0.9-0.3 0.9-0.1 0-0.2-0.1-0.5 1.4-0.5 2v0.1q0.1-0.1 0.1-0.3l0.5 0.2-0.5 0.8v0.4q-1.9-0.3-5.8-0.2-3.8 0.1-5.8-0.2-0.3-1.8-0.3-2.4 0-2.5 0.1-7.4 0.2-5 0.2-7.4 0.9-0.5 1.9-1 1-0.5 1.8-0.5 0.9 0 2.6 0.6 1.6 0.5 2.5 0.5 0.2 0 0.4 0v0.4l2.4 1.7 0.1 0.2q0 0.4-0.8 0.2l0.4 1.7h0.7q0.3 0.7 0.5 1.5 0.3 0.7 0.3 1.5zm6.9-33.6q-1.7 0-1.7 0 0 0 0.4 1.1 0.4 1 0.5 1 0.6-1.4 0.8-2.1zm-7-4.2l1 0.3q-0.1-0.1-0.1-0.7 0-0.4-0.4-0.4l-0.5 0.1zm4.2 5.7q0-0.4-1.4-0.8v0.7q-0.3-0.2-0.4-0.2-0.3 0-0.3 0.8v0.8q0.7 0 1.8 0.3v-1.3q0.3-0.1 0.3-0.3zm-5.3-3.6q-0.1-0.1-0.1-0.6 0-0.2-0.3-0.2-0.9 0-0.9 0.3 0.4 0.4 1.3 0.5zm3 3q0-0.5-0.9-0.5-0.2 0-0.2 0.1 0 0.3 1 0.9 0.1-0.3 0.1-0.5zm-5.5-2.9q-0.2-0.2-0.6-0.2-0.8 0-0.8 0.8 0 0.4 0.6 0.4 0.8 0 0.8-1zm-4.4-0.6q0-0.3-0.1-0.9-0.1-0.4 0-0.7h-0.7q-0.3 1.1-1.1 3.2l1.1-0.4q0.1-0.4 0.3-0.7-0.1 0.6-0.1 0.9 0 0.1 0 0.2 0.1 0 0.3-0.7 0.3-0.7 0.3-0.9zm-3.3 1q-0.4-0.4-1.4-0.5 0.1 0 0.1 0.1 0 0.1-0.8 1 0.1-0.1 1.1-0.3 1-0.2 1-0.3zm1.5 2.7q0-0.2-0.4-0.1l0.3-0.3 0.1-0.5q0-0.3-0.2-0.3l-0.2 0.1q0.1 0 0.1 0-0.1 0.1-0.8 0.4 0 1.4 0 1.4h1q0.1 0.2 0.1-0.7zm7.6 8q-0.3-0.3-1-0.3v0.7q1 0 1-0.4zm-11.6-10.8q-0.2-0.4-0.8-0.4-0.4 0-0.4 0.1 0 0.4 0.9 1 0.3-0.4 0.3-0.7zm12.6 15.6q-0.4-0.4-0.9-0.5v0.7h0.4q0.5 0 0.5-0.2zm-13.3-13.3q-0.2-0.3-0.7-0.3-0.1 0-0.3 0.1 0.1 0 0.1 0.1 0 0.3-0.5 0.5-0.1-0.3-1-1l0.3 1.4h1.1l-0.4 0.7h0.8v-1.1q0.6 0 0.6-0.4zm10.3 10.4q-0.9-0.1-1.9-0.1-1.8 0-1.8 0.6 0 0.4 0.7 0.6 0.6 0.3 1.1 0.2h0.1l0.7-0.7q1.1-0.3 1.1-0.6zm-16.4-13.6q0-0.6-0.9-0.6-0.2 0-0.2 0.2 0 0.3 0.9 0.9 0.2-0.3 0.2-0.5zm3.2 3.2q-0.6-0.2-1.6-0.2l0.3 0.6q1.3 0 1.3-0.4zm13.2 30.7h0.7q-0.2 0-0.2-0.5 0-0.2-0.5-0.2zm-2.5 1.1h0.7q-0.1-0.1-0.1-0.6 0-0.2-0.6-0.2zm5.3 3.5q-1.1-0.3-3.5-0.6 0.1 0 0.3 0.6 0.2 0.5 1 0.5 0.9 0 2.2-0.5zm-4.5-1q-0.2-0.6-1.2-0.7l0.4 1.1h0.3q0.5 0 0.5-0.4zm-4.9-0.4q0-0.4-0.6-0.4-0.5 0.1-0.5 0.2 0 0.1 1 0.6 0.1-0.1 0.1-0.4zm0.6 1.1l0.3 0.7q0 0 0-0.6 0-0.1-0.3-0.1zm62.7-24.1q-0.6 0.4-1.7 0.5 0.1-0.1 0.3-0.5 0.1-0.2 0.4-0.2 0.9 0 1 0.2zm-13.3-10.4q0 0.3-0.5 0.5v-0.4q0-0.3 0.2-0.3 0.3 0 0.3 0.2zm9.7 10.5l-0.1 0.1-0.4-0.1q-1-1-1-1 0-0.1 0.1-0.1 0.2 0 0.8 0.5 0.6 0.5 0.6 0.6zm-8.8-9.6l-0.3 1.7q-0.9 0-0.9-0.4 0-0.1 0.5-0.5 0.6-0.5 0.7-0.8zm1.7 4.8q-0.2 0.2-0.4 0.6-0.2 0.7-0.3 0.8-0.5-0.1-1.7-0.4v-0.7q0.7-0.2 0.7-0.5 0-0.2-0.2-0.2-0.2 0-0.8 0.4-0.1-0.3-0.4-1.7 0.3-0.3 0.7-0.7 0.5-0.5 0.7-0.7 0.4 1.6 0.5 1.8 0.2 0.4 1.2 1.3zm3.5 3.8q0 0.2-0.4 0.7-0.4 0.3-1.3 0.5-1.3 0.1-1.4 0.2 0-0.2-0.2-0.9-0.2-0.6-0.2-0.8v-0.8q0.2 0.1 0.5 0.3 0.3 0.2 0.6 0.2 0.1 0 0.3-0.1 0.2-0.1 0.1-0.3-0.2-0.3-0.2-0.3 0-0.1 0.3-0.1 0.7 0 0.8 0.9-0.2 0.3-0.6 0.2l1.3 0.3 0.3-0.1q0 0 0.1 0.1zm-3.3-1.6q0 0.3-0.5 0.5l-0.1-0.4q0-0.3 0.2-0.3 0.4 0 0.4 0.2zm-1.4 5.5q0 0.4-0.5 0.6v-0.4q0-0.4 0.2-0.4 0.3 0 0.3 0.2zm4.4 10.6l-0.4 0.3q-0.7-0.6-0.7-0.9 0-0.1 0.2-0.1 0.9 0 0.9 0.7zm8.6-1v2.3q-0.1 0.1-0.6 0.1-0.2 0-0.2 0.3l0.1 0.3q0.5 0.4 0.5 0.5 0 0.1-0.2 0.3-1.1 0-1.2 0.1l0.9 0.2q-0.2 1.6-0.4 4.8 0 0-0.8 0.4-0.7 0.4-0.7 0.4 0.4 0.1 0.4 0.8 0 0.6-0.3 1.2l-1 0.3q0 0 0 1.4l-1 0.7q-0.3 0-0.4-0.2 0.1 0.4 0.1-0.4l-0.1-0.1-1 0.4q0.3 0.1 1 0.3v0.7h-0.1q-0.3 0-0.7-0.1-0.3-0.3-0.5-0.3l0.3 1.4h-1q-0.1 0.6-0.7 1.7l-1.1-0.3q-0.1-0.2-0.2-0.9-0.1-0.5-0.7-0.5-1.1 0-1.1 0v0.7h1.4q0.1 0.7 0.6 1.8-1.1-0.4-1.6-0.4-0.5 0-1.8 0.7v0.7q-0.5-0.7-1.4-0.7-0.4 0-1 0.7-0.6 0.7-1.1 0.7-0.1 0-0.3-0.2-0.1-0.2-0.2-0.2h-0.1l-0.7 0.7q-0.9 0.2-2.2 0.2-2.2 0-5.8-0.9l0.7-1-0.2-0.1q-0.5 0-1.4 0.4-0.9 0.4-1.5 0.4-0.3 0-0.7 0v-0.7q0 0-0.8 0-0.4 0-0.9-0.7-0.4-0.6-0.7-0.7l-0.6 0.1q-0.6 0-0.9-0.8-0.3-0.9-0.6-1.1-0.6 0-1.7-0.2-0.5-0.5-0.8-1.7-0.4-1.4-0.6-1.8l-1-0.4q0-1.1-0.3-3.4l-0.7-0.7q-0.1-0.7-0.1-1 0-0.5 0.1-1.9 0-1.2 0-2 0.7 0 2-0.3v-0.7l-1-0.6q0.1-0.2 0.2-0.5 0.2-0.4 0.2-0.7 0-0.5-0.5-0.6-0.5-0.2-0.9-0.3v-11.4q1.3 0.1 3.8 0.7l-0.4-1.7q0.9 0 0.9 0.1 0 0.1-0.2 0.2h1.7l-1-0.7h-0.2q-0.4 0-1.1 0.2-0.7 0.2-1.1 0.2v-1.4q-0.3-0.1-1.7 0l-0.1-0.1q0-0.2 0.2-0.4 0.2-0.1 0.2-0.2-0.7-0.4-0.7-1.4 0-0.9 0.5-2.4 0.6-1.5 0.6-2.4 0.1-0.2 0.7-0.2 0.4 0 0.4-0.5 0-0.2-0.3-0.4-0.2-0.3-0.2-0.5 0-0.8 1.1-1.6 1-0.9 1.8-0.9 0.4 0 1.7-1 1.2-1 1.7-1.1 1.7-0.6 5.8-0.7 0 0.2 0-0.6 0-0.2 1.2-0.2 0.8 0 2.5 0.2 1.7 0.3 2.5 0.3-0.2 1-0.7 4.7h1.1q0.1-1.5 0.7-4.4h0.6q0 0.4 0 0.7-0.1 0.6-0.3 0.6 0.2-0.1 0.6 0 0.5 0.1 0.6 0.1l0.2-0.1v-1.3h0.2q0.6 0 0.6 0.2 0 0-0.1 0.1 0.9 0.1 2.7 0.4l0.7 1q-0.1 0 1.4 0 0.5 0 1.1 0.7 0.7 0.9 1 1 0.5 0 1.3 0.4 0.2 0.1 0.2 0.7 0.1 0.5 0.2 0.7h0.7q2.4 3.7 2.4 4.4 0 0.6-0.4 1.7l1.1 1.1h0.3v0.1q0 0.3-0.2 0.7-0.3 0.3-0.5 0.6 0.4-0.4 0.6-0.4 0.2 0 0.2 0.3 0 0.5-0.8 1.8h0.3q0.4 0 0.4 0.2l-0.7 0.5-1-0.7q-0.3-0.1-1.9-0.1-1.1 0-1.5-0.2l-0.4-1.8q-0.3 0.1-0.9 0.2-0.5 0.1-0.8 0.2 0.1 0 0.1 0.2 0 0.2-0.7 0.2h-0.1l-0.7-1.5h-0.3q-0.6 0-1.1 0.4-0.1-0.2 0-0.8 0.1-0.8 0.1-0.8l-0.1-0.2-1-0.3q-0.2-0.3-0.3-1 0-0.9-0.1-1.1h-0.6v-0.1q-0.1-0.3 0.3-0.4 0.4-0.1 0.7-0.2-0.3-0.2-0.3-0.4l0.3-0.6q-0.7-0.4-1.3-0.9-0.3-0.2-0.4-1.1 0.1-0.1 0.1-0.3 0-0.1-0.7-0.1h-0.1q0 0-0.2 0.6-0.1 0.3-0.5 0.4-0.2-0.1-0.5-0.1-0.6 0-0.6 0.7 0 0.1 0.7 0.1v1.1q-0.2 0.2-0.6 1.3h0.3v0.8h-0.2q-0.4 0-0.8-0.7-0.3-0.6-1.6-0.6-2.8 0-4.7 0.8-2.7 1.1-2.7 3.4 0 0.6 0.7 3.9l-0.2-0.1q-0.1 0-0.1 0.3 0 0.2-0.3 0.2h-0.1q-1.1-1-1.7-1.4-1 0.2-1 0.5 0 0.5 1 0.9 1 0.4 1.6 0.4 0.3 0 0.8 0.3-0.4 5.4-0.4 4.8 0 0.4 0.2 1.3 0.2 0.7 0.2 1.1l-0.7 0.4q0-0.4-0.2 0.8 0.4 0 0.9 0.2-0.1 0.3-1 3.5-1.1-0.4-1.2-0.4h-0.2q0.1 0.9 0.1 1.4 0 0-0.1 0.1v-0.1-0.4q-0.1 0.1-0.4 0.2-0.2 0.2-0.3 0.2 0 0.1 0.8 0.6 0.8 0.5 0.9 0.5 0.3-0.3 1.4-0.8 0 0.4-0.5 2.9 0 0.4 0.3 0.6 0.2 0.1 0.2-0.1v0.8q0.1 0.1 0.1 0.5 0 0.3-0.5 0.1v0.7h0.7l0.4 1.8q1 0.7 2 1.5 0.9 0.5 2.2 0.5 4.9 0 6.5-2.5 0.8-1.4 1.7-7.1 0.3 0.1 0.3 0.6v0.4h0.3q0.6 0 1.6 0.2 1.1 0.1 1.6 0.1 0.1 0.4 0 0.8-0.1 0.8-0.1 0.9 0 0.3 0.1 0.5h1v1.3q1-0.5 1-0.8 0 0-0.3-0.3l1-0.2q-0.1 0.1-0.1 0.6 0 0.6 0.1 1.7 0.5-0.3 1.4-1l0.7 0.3 0.4 0.7 0.2 0.1q0.2 0 0.4-0.3 0.2-0.2 0.4-0.1-0.3-0.2-0.4-1-0.3-0.4-1.1-0.5-1.1-0.2-1.3-0.3 0-0.1 0.1-0.6 0-0.4 0-0.5 0-0.3-0.1-0.5 0.4-0.4 1.1-1.1h1v-1q-1.9 1.5-2.8 1.5-0.8 0-0.9-2 0-1.3-0.1-2.6-0.4-0.4-1.1-0.4-0.1 0-0.3 0.1v1.3l-0.2 0.1q-0.2 0-0.6-0.3-0.3-0.2-0.5-0.2l-0.4 0.1-1 1.7h-0.4q0 0-0.7-0.1-0.4 0-0.7 0.1 0.2-0.3 0.4-1l-0.4-0.4q0.6-2.8 1.1-2.8-0.2 0 2.4 0.7 0-0.6 0.3-1.3-0.2-0.3-1.7-1.4h-0.4q-0.6 0-1.7 0.4-0.2-0.2-0.3-0.5 0-0.3 0-0.7 0.1-0.6 0.1-0.6 0-0.7-0.4-1.1v-1.3q0.2 0 0.6 0 0.4 0 0.6 0h0.5q-0.2-0.1-0.1-0.2 0.1-0.3 0.1-0.3 0 0-0.2 0l-0.2 0.2q0 0 0-0.9 0-0.6 0.7-0.6 0.6 0 1.4 0.3 1.1 0.4 1.4 0.4v0.8h-0.4v0.6h-1v1l-1 0.4q0.2 0.1 0.2 0.5 0.1 0.2 0.1 0.6 1 0 2.8 0.3l-1.1-1.1h-0.3q0.2 0.1 0.2 0.2 0 0.2-0.9 0.2v-0.7q0.3-0.2 0.3-0.3 0-0.1-0.5-0.1 0 0 0.6 0 0.1 0.5 0.4 0.5 0.1 0 0.2-0.1v-1q0.4-0.1 1.8-0.4-0.2 0-0.1-0.3 0.1-0.2 0-0.2 0 0 0 0-0.1 0.1-0.3 0.2v-1.1q0.3-0.1 0.9-0.1 1 0.1 1 0.1 1.5 0 2.3-0.3 0.2-0.1 0.3-0.6 0.2-0.5 0.7-0.5 1.5 0 1.4 0.1-0.1 0.1-0.4 1.7h-0.7q0 0.4 0.5 1 0.5 0.8 0.6 1 0.7 3.1 0.7 7.7zm-35.9-14.6q0 0.4-0.7 0.4 0 0.2 0-0.6 0-0.1 0.1-0.1 0.6 0 0.6 0.3zm25.2-11.7h0.7q-0.2 0-0.2-0.5 0-0.2-0.5-0.2zm-3.5-0.9q-0.2-0.1-0.4-0.1h-0.3q-0.5 0.7-0.6 1 0.1 0.1 0.3 0.1 0.2 0 0.3-0.1v-0.6q0.7 0 0.7-0.3zm2.1 4.1h0.7q-0.1-0.1-0.1-0.5 0-0.2-0.6-0.2zm-2.8-1.7l1.1 0.3q-0.2-0.1-0.2-0.7 0-0.4-0.4-0.4l-0.5 0.1zm8.7 8.9q-0.1 0-0.1-0.5 0-0.2-0.3-0.2-0.7 0-0.7 0.2 0.7 0.4 1.1 0.5zm-2.3-3.1q0-0.2-0.2-0.3-0.7 0-0.8-0.2 0.2-0.2 0.5-0.2-0.7 0.1-1.4 0l-0.7 1.1q0.5 0.2 0.6 0.5 0.1 0.4 0.1 0.8h0.7v-1.7q0.8 0.2 0.9 0.2 0.3 0 0.3-0.2zm-8-2.5q0-0.4-0.8-0.6l0.4 0.7h0.2q0.2 0 0.2-0.1zm-1.3-0.4q-0.1-0.2-0.5-0.2-0.5 0-0.5 0.1 0 0.1 0.5 0.6 0.5-0.1 0.5-0.5zm13.3 13.6h-1.1q-0.2 1-0.2 1.7l-0.1 0.5v0.2l-0.1 0.2h0.1q0.4 0 1-0.9l-0.3-1.4q-0.2 0.1 0.5 0.1 0.2 0 0.2-0.4zm3.4 7.5q0-0.3-0.2-0.3-1 0-1 0.8 0.2 0.3 0.6 0.3h0.3q0.3-0.6 0.3-0.8zm-10-7.5h0.7q-0.2-0.2-0.1-0.4 0.1-0.5 0.1-0.4 0-0.2-0.7-0.2zm4.7 4.5q-0.2-0.2-1.4-0.9-1.2-0.8-1.5-0.9 0.4 0.7 0.9 1.3 0.5 0.6 1.5 0.6 0.5 0 0.5-0.1zm-19.8-19.5q-0.4-0.1-1.4-0.2v0.3q1.1 0 1.4-0.1zm-2.5 0.1h0.7q-0.2-0.2-0.1-0.4 0.1-0.4 0.1-0.4 0-0.2-0.7-0.2zm22.8 22.7h0.7q-0.1 0-0.1-0.5 0-0.2-0.6-0.2zm-20.8-20.8q-0.3-0.4-0.9-0.5v0.6l0.4 0.1q0.5 0 0.5-0.2zm-4-1.9h0.7q-0.2-0.1-0.2-0.5 0-0.2-0.5-0.2zm1.5 1.5q-0.4-0.5-0.5-0.5h-0.3v0.7q0 0-2.1 0 0.2 0.1 0.1 0.4 0 0.3 0.3 0.3 0.4 0 1.4-0.3 1.1-0.4 1.1-0.6zm0.3 2.8q-0.3-0.4-1.1-0.5l0.3 0.7h0.4q0.4 0 0.4-0.2zm-1.6 1.7q0.3 0-0.1-0.1l-0.5-0.4v-0.7h-1q-0.1-0.1 0-0.3 0.1-0.3 0.1-0.4 0-0.3-0.8-1 0.3 0 0.5-0.1-0.7-0.1-2.2-0.3v0.7q-0.1 0 0.8 0h0.2l1.7 2.8q1.2 0 1.2-0.2 0-0.1-0.1-0.2 0.1 0.1 0.2 0.2zm2.3 3.2q-0.4-0.4-1.1-0.6v0.7h0.6q0.5 0.1 0.5-0.1zm-1.8-2.3q-0.7 0-0.8-0.2 0.1-0.1 0.4-0.2-0.2 0-0.8 0.1-0.5 0-0.8 0-0.4 0-0.8-0.1-0.3-0.6-0.7-0.7l-0.3 0.7q1.3 0.7 2.9 0.7 0.7 0 0.7-0.1 0.1-0.2 0.2-0.2zm23.3 27.5q0-0.2-0.9-0.8-1.1-0.9-1.1-0.9 1.6-1.2 1.6-2.3-0.2-0.4-0.7-0.4h-0.2l-0.7 1v0.1q0 0.3 0.4 0.9l-1 0.4v1l1.7 1.4q0.9-0.2 0.9-0.4zm-27.5-28q-0.1-0.3-0.5-0.3-0.8 0-0.8 0.8 0.2 0.3 0.8 0.3h0.2q0.3-0.6 0.3-0.8zm24.5 32.2q-0.3-0.3-0.3-1l0.3-0.7h-0.4q-0.4-0.1-0.4 0.1 0 0.1 0.1 0.2-0.2 0.1-0.3 0.1 0 0 0-0.3 0-0.1-0.1-0.2-0.2-0.1-0.2-0.2 0.1 0 0.3 0 0.6-0.1 0.7-0.4 0.1-0.4 0-2.1 0.3 0 0.3-0.3v-0.7l-1 0.7q-0.2-0.1-0.3-0.5-0.1-0.6-0.1-0.6h-1q-0.3 0.9-1 2.4-0.4 0.2-1.1 0.7-0.1 0-0.1-0.5 0-0.2-0.3-0.2h-0.3v0.7q0.5 0 1.5 0 1-0.1 1.5-0.1v0.1l-0.2 0.4v0.7q-0.2-0.2-0.3-0.2-0.2 0-0.2 0.5 0-0.1 0.1 1.1 0.5 0.2 1.4 0.2h0.6q0.5 0 0.8 0.1zm-17.2-16.2l-0.4-0.7q-0.6-0.2-1.7-0.4-1.3-0.2-1.7-0.3 0.1 0 0.1 0.1 0 0.1-0.5 0.6-0.4-0.1-0.9-0.1-0.4 0-0.4 0.1 0.1 0.1 1.3 1.4h0.5q0.4 0 3.7-0.7zm13.5 15.7q-0.5-0.3-1-0.2h-0.8q-1.1 0.6-1.1 0.9 0 0.1 0.4 0.1 0.3 0 1.4-0.3 1.1-0.3 1.1-0.5zm-2.5-1.2l0.3-0.7-1.1 0.1-0.6-0.1-0.7-1.1h-0.2q-1.1 0-1.1 0v1.4zm-12.9-12q-0.9-0.8-2-0.8-0.2 0-0.5 0.2-0.3 0.2-0.5 0.2 0-0.1 0-0.4 0-0.1 0.1-0.3 0.2-0.2 0.3-0.3-1.8-1.4-4.2-2.1l-0.3 0.7 1 0.7q-0.2 0.5-0.5 0.5-0.1 0-0.2-0.2v0.7q0.4 0.2 0.7 0.2 0.3 0 0.8-0.3 0.5-0.2 0.8-0.2 0.3 0 0.8 0.3l-0.3 0.7q0.4 0.1 1.5 0.4 0.9 0.2 1.6 0.2 0.9 0 0.9-0.2zm3.2 6.9l0.4-0.7h-1q0.3-0.5 0.3-0.6 0-0.1-0.2-0.1h-0.1l-0.7 0.3-0.4 1.1q1.7 0 1.7 0zm1.6 1.8q0-0.5-0.9-0.5-0.2 0-0.2 0.2 0 0.2 0.9 0.9 0.2-0.2 0.2-0.6zm6 5l1.1-1q-2.2 0.6-2 0.6v-0.2q0-0.5-0.8-0.7l-2.1 1.7v0.7h0.7v0.7q-0.5 0-0.5 0.2 0.1 0.3-0.2 0.5 0.2-0.2 0.7-0.2 0.5 0 0.7-0.2 0.3-0.2 0.4-0.6 0.1-0.5 0.7-0.8 0 0 0.1-0.1 0-0.1-0.3-0.2-0.3-0.1-0.3-0.2 0-0.2 0.3-0.2 0.3 0 0.8 0 0.5 0.1 0.5 0.1zm-8.1-5.9q0-0.3-0.9-0.3l0.7 0.7q0.2-0.3 0.2-0.4zm2.1 2.6q-0.5-0.5-1.3-0.5v0.7h0.5q0.8 0 0.8-0.2zm-3.7-1.9q-0.4-0.6-1-0.7v1.1h0.4q0.6 0.1 0.6-0.4zm1.7 1.6q-0.1-0.3-0.4-0.3-0.8 0-0.8 1 0.2 0.2 0.5 0.2 0.1 0 0.4-0.1 0.3-0.6 0.3-0.8zm2.4 3.5q0-0.1-0.3-0.6-0.2-0.5-0.2-0.7 0-0.2 0.2-0.3-1.7 0-1.7 0v1q0.8 0 1.2-0.1h-0.5q-0.2 0-0.2 0.1 0.1 0.2 0.5 0.4v0.3q0.3 0.1 0.7 0.1 0.3 0 0.3-0.2zm0.7 0.9q-0.1-0.2-0.3-0.2-0.2 0-0.3 0.1-1 1.5-1 1.8 0.2 0.1 0.3 0.1 0.3 0 0.7-0.2 0.6-1.1 0.6-1.6zm-3.1 0.2l1.1 0.4q-0.2-0.1-0.2-0.8 0-0.4-0.4-0.3h-0.5zm-4.3-4.1q0-0.4-0.6-0.4-0.5 0.1-0.5 0.2 0 0.3 1 0.5 0.1-0.3 0.1-0.3zm2.3 1q-1.2-0.4-1.9-0.4l-0.5 0.1q-1.3 1-1.3 1.6 0.2 0.2 0.5 0.2l0.4-0.1 0.4-0.7q0.8-0.2 2.4-0.7zm17.2-1.5q-0.3 0.5-1 0.5-0.1 0.2-0.1-0.7 0-0.3 0.3-0.3 0.8 0 0.8 0.5zm57 7.4q0.5-0.1-3.3-0.1-0.8 0-2.4 0.4-1.6 0.4-2.5 0.4-1.3 0-3.6-0.5-2.6-0.5-3.6-0.6-0.4-1.5-0.7-2.5-0.7-1.8-1.1-2.1-0.4-0.1-1-0.4-0.3-0.4-0.7-2.4-0.3-1.4-1.5-1.5l-0.3-1.5h0.5q1.6 0 2.4-0.4 0.8-0.4 1.3-1.7-0.4 0.2-1 0-0.5 0.2-0.4 1.1 0.2-0.1-1.8-0.1-0.4 0-0.8 0.5-0.4 0.5-0.6 0.6-1.7-4.3-3.2-5.7 0.3-0.1 0.7-1h1.2 0.6v-0.8l-0.6 0.3q0-0.2 0.6-0.6l-0.4-0.7q0.9-0.8 1.5-1.1v-0.4q0.1 0 0.4 0 0.3 0.1 0.4 0.1l0.2-0.1v-0.7q-0.6 0-1.8 0.4-0.2 0.1-0.2 0.5-0.1 0.4-0.1 0.6-0.2 0.4-1 0.9-0.6 0.4-1.2 0.8-0.8-0.4-2.2-0.7-2.1-0.2-2.4-0.3-0.7-0.6-0.7-0.8 0 0 0.1 0l0.2 0.1v-1.1q-1.4 0-1.4 0v1.1q0-0.1-0.1-0.1-0.2 0-0.2 0.8 1 2.1 1 2.5 0 0.5-0.4 0.7-0.3 0.2-0.3 0.6 0 0.7 0.3 2.1 0.4 1.3 0.4 2.1 0 0.6-0.5 1.8-0.5 1.3-0.5 1.8 0 0.3 0.1 1 0.2 0.7 0.2 1.1 0 0.5-0.4 1.7-0.6 1.4-0.7 1.7-0.3-0.2-1-0.3v-1.1q-0.5-0.2-1.3-0.2-1.2 0.2-1.2 0.2v-0.7h0.1q0.5 0 2 0.3l0.4-2.1q-0.7-0.1-1.8-0.7h-0.4q0.4-0.5 1.1-1.5-0.7 0.1-1 0.1-1.1 0-1.1-0.3 0-0.1 0.4-0.4 0.4-0.3 0.4-0.4-0.1-0.1-0.4-0.1-0.3 0-0.4 0.3 0 0.2 0 0.5-0.3 0.2-0.4 0.7 0.6 0.2 0.6 0.4-0.3 0.5-0.6 0.7 1.2 0 1.2 0.5 0 0.7-1.9 2 0 0.8 0.7 0.8 0.2 0 0.4-0.1v1.8l-0.4 0.7q0.6 0 1.4 0.3-1 0.1-2.1 0-0.4 0.8-0.8 1.5-0.3 0.5-1.6 0.5-0.5 0-1.5-0.1-1-0.1-1.5-0.1 0.4-5.8 0.4-12.5 0 0 2.5 0l0.3-2.5q0.6-0.1 1.5-0.3v-1.1q-1.1 0.5-3.2 1.4h0.3q0.6 0 0.6 0.3 0 0-0.2 0.6-0.2 0.5 0 0.6-0.5-0.2-0.9-0.3-0.4-0.2-0.9-0.1 0.1-1.8 0.1-5.3 0-0.9 0.1-3.4 0.1-2.5 0-3.8 0-2-0.2-3.2-0.8-3.7-0.8-4.4 0-3.1 0.8-8.1 0 0 0.5 0 0.1 0 0.2-0.4l-0.5-0.1q0 0.3-0.6 0.5-0.5-4.4-0.5-4.9 0-1.1 0.2-1.9l1-1.1q3.6 0 10.6 0.2 7.1 0.2 10.6 0.2 0.9 0 2.5-0.2 1.6-0.2 2.4-0.2 0.9 0 2.5 0.5 1.5 0.5 2.5 0.5 1.3 0 4.1 3.3 2.8 3.2 3.1 4.7 0 0.3 0 0.9-0.1 0.8-0.1 1 0 0.2 0.1 0.6h0.7q0.3 2.9 0.3 2.5 0 0.7-0.6 1.6-0.7 1.2-0.8 1.6-0.2 0.7-0.2 2.7-0.1 1.7-0.5 2.6-0.1 0.3-1.4 1.6-1.2 1.2-1.5 1.3-0.3 0.1-1 0-0.3 0.2 0 1.1-0.6 0-1.8 0.3-0.7 0.3-1.6 1-1.2 0.9-1.6 1.2 0.2 0.4 0.3 1 0.4 0.1 0.8 0.2 0.3 0.1 0.3 0.6 0 0.2-0.2 0.5-0.2 0.2-0.2 0.4v0.1h1.1v1.1l-0.7 1.1q1-0.3 2.1-0.8 1.6 3.5 4.6 8.1 2.5 3.8 5.1 7.7zm-33.5-5.3l-0.8 0.6q0 0 0-0.6 0-0.1 0.3-0.1 0.5 0 0.5 0.1zm2.4 3.8v1.5q-0.6 0.1-0.6 0.1-0.3 0-0.3-0.3 0-0.9 0.9-1.3zm-1.7-1q0 0.3-0.5 0.7-0.5 0.3-0.8 0.3-0.3 0-0.3-0.4l0.4-0.6q0.5-0.2 0.9-0.2 0.3 0 0.3 0.2zm-2.5 2.2q0 0.1-1.2 0.6 0.1-0.1 0.3-0.5 0.1-0.2 0.6-0.2 0.3 0 0.3 0.1zm28.5-40.1q-0.1-0.1-0.1-0.6 0-0.1-0.4-0.1-0.8 0-0.8 0.2 0.5 0.4 1.3 0.5zm-4.3-2.1h0.7q-0.1-0.1-0.1-0.6 0-0.2-0.6-0.2zm-2.3-4.9q0-0.2-0.3-0.2l-0.3 0.1-1 1.4h-1.1q-0.4 0.2-0.4 0.3 1.8 0.1 2.2 0.1 0.9-1.3 0.9-1.7zm9.1 12l0.7-1.4q-2.5 0-2.5 0 0.1 0.5 0.4 1.4zm-6.2-6.6q0-0.2-0.4-0.2-0.1 0-0.2 0.1-0.2 0.4-0.2 0.9 0 0.2 0.3 0.2 0.1 0 0.3-0.1 0.2-0.6 0.2-0.9zm-8.7-5.5q-0.1-0.1-0.3-0.1-0.1 0-0.5 0.1-0.7 1-0.7 1.3 0.1 0.2 0.2 0.2 0.3 0 0.8-0.6 0.5-0.6 0.5-0.9zm-0.5 3.9h0.7q-0.1 0-0.1-0.5 0-0.2-0.6-0.2zm7.5 7.5h0.7q-0.1 0-0.1-0.5 0-0.2-0.6-0.2zm1 1.6q0-0.2-0.3-0.2-0.6 0-0.6 0.4 0 0.2 0.6 0.4 0.3-0.3 0.3-0.6zm-13.1-12.3q-0.1-0.1-0.1-0.5 0-0.2-0.3-0.2-0.7 0-0.7 0.2 0.3 0.2 1.1 0.5zm15.4 17.1q-0.3-0.2-1.5-0.3v0.4q1.2 0 1.5-0.1zm-14.3-13.9q-0.1 0-0.1-0.5 0-0.3-0.3-0.3-0.1 0-0.4 0.1l-0.3 0.7q-0.5 0.5-0.5 0.4 1-0.3 1.6-0.4zm15.6 19.1q-0.4-0.4-1-0.5v0.7l0.5 0.1q0.5 0 0.5-0.3zm-18.9-19.1q-0.6-0.8-0.3-1l-1.1-0.4v0.3q-0.1 0.5 0.4 0.8v0.3q-0.5 0-1.8-0.7-0.4 0.7-0.4 1.3 0 0.1-0.7 0.5-0.7 0.4-0.7 0.4v0.7q-0.1 0 1.4 0h0.4v-0.4q0.9-0.6 2.8-1.8zm12 9.4q0-0.1-0.2-2.9h-0.7q-0.3-0.9-0.7-1.8-0.3-0.7-1.5-0.7-0.2 0-0.3 0l0.4-1.1h-0.3q0.4 0-1.9 0.3l-0.7-0.7q1-0.1 1-0.2-0.1-0.1-0.3-0.1 0.5-0.1 1.5-0.4-0.5 0.2-0.5 0.2h-0.1q0-0.2 1.5-1.3 1.5-1.1 1.5-1.4l-1.4-0.7-1 1.8q0.1-0.1-1.2-0.1-0.4 0-0.7 0.9-0.4 0.8-0.6 1-1.3 0.8-5 0.8-1.1 0-2.8 0-1.7-0.1-2.2-0.1 0.2 1.2 0.7 3.6h-0.4l-0.4 0.1q-0.2-0.1-0.7-0.1-0.5 0.8-0.5 1.4 0 0.7 0.9 0.7l1.4-1.4q-0.1 0.9-0.1 2.9 0 1.1 0 3.4 0.1 2.2 0.1 3.3 3.7 0 5.1-0.1 2.8-0.1 4.9-0.6l1.1-0.7h0.4q0.4 0 1 0.2 0.6 0.2 0.9 0.2l0.2-0.1 0.7-0.7-1.1 0.4 0.1-0.2q0-0.1-0.2-0.3-0.2-0.1-0.2-0.4v-0.2l1.1-0.7q1.2-2 1.2-4.2zm-0.2 7.4l0.1-0.2q0-0.5-1.1-0.5-1.1 0-1.2 0.2zm-2.1 0.3v0.7q0 0-0.9 0-0.4 0-0.4 0.5-0.1 0.5-0.1 1-0.4-1.7-0.7-1.7-0.2 0-0.2 0.8 0 0.7 0.1 0.8 0-0.2 0-1.4h0.8l-0.1-1q0-0.3 0.1-0.4 0.5 0.2 1.4 0.7zm-14.3-7.5q-0.1 0-0.2-0.4-0.1-0.3-0.5-0.3h-0.4l-0.7 0.7q0 0 1.8 0zm10.7 12.2h0.7q-0.1-0.1-0.1-0.5 0-0.2-0.6-0.2zm-11.5-16.4q-0.3 0-0.6-0.1v-0.7q0.4 0 0.4-0.2 0-0.2-0.4-0.5l-0.4-0.1q-0.3 0-0.9 0.3-0.5 0.2-0.9 0.2 0.2-0.5 0.2-0.7 0-0.5-1.1-0.5-0.6 0-1.6 0.4-1.1 0.3-1.6 0.3-1 0-1-0.4 0-0.4 0.5-0.9l-1.1-0.4-0.7 2.5q1.7 0.3 5 0.7 0.1-0.4 0.2-0.8 0-0.2 0.5-0.6 0 0 0 1.4 0 0.5-0.3 1.1h-0.4q-0.5 0.3-1.1 0.8-0.9 0.9-1 1 0 0.8 0.3 0.8 0.8 0 1.4-1.5 1.2-0.7 1.7-0.7 0.2 0 0.8 0.2 0.5 0.1 0.8 0.1-0.9-0.6-0.9-0.6 0.3 0 1 0.2 0.8 0.2 0.8 0.3h-0.1q-0.5 0-1.2-0.2v-0.4q-0.3 0.1-0.3-0.1 0-0.1 0.3-1 0.6 0.1 1.7 0.1zm26.7 33.1q0-0.3-0.6-0.3-0.5 0-0.5 0.1 0 0.2 0.9 0.6 0.2-0.3 0.2-0.4zm-28.4-26.7q-0.1-0.1-0.1-0.6 0-0.2-0.3-0.2-0.7 0-0.7 0.2 0.4 0.2 1.1 0.6zm30.6 31.2q-0.4-0.4-1-0.5v0.7h0.5q0.5 0 0.5-0.2zm-7.4-6.9l0.4 0.7q0 0 0-0.6 0-0.1-0.4-0.1zm-15.5-16q-0.1-0.2-0.2-0.2-0.2 0-0.4 0.1-0.5 1-0.5 1.4 0 0.1 0.2 0.1 0.4 0 0.6-0.5 0.3-0.6 0.3-0.9zm6.5 7q-0.3-0.2-1-0.3h0.7q-0.3-0.1-0.9-0.4-0.6-0.2-0.9-0.3 0 0.1-0.7 1.7 2.8-0.3 2.8-0.7zm-19.2-16h0.7q-0.1-0.1-0.1-0.5 0-0.3-0.6-0.3zm10.4 8.3v-0.1q-0.6-0.3-0.8-1.1h-0.7v2.5q-0.5-0.2-0.8-0.2l-0.1 0.1q0 0.1 0.6 0.1v0.8h0.3q0.4 0 0.7-0.4 0.2-0.4 0.4-0.4v-0.2q0-0.2 0.2-0.6 0.2-0.4 0.2-0.5zm18.9 20.3q-0.4-0.4-1.1-0.4v0.7q1.1 0 1.1-0.3zm-12.5-10h0.7q-0.1-0.1-0.1-0.5 0-0.2-0.6-0.2zm-15.3-16.7q0-0.5-0.7-0.5h-0.4q0.1 0 0.1 0.2 0 0.2-0.5 1.3h1.1q0.4-0.6 0.4-1zm23.8 26.7q-0.4-0.7-1-0.7v1l0.4 0.1q0.6 0 0.6-0.4zm-18.9-16.8l1.1 0.3q-0.2-0.1-0.2-0.7 0-0.4-0.4-0.4l-0.5 0.1zm-3.8-3.2q-0.3-0.6-1.2-0.7l0.4 1 0.3 0.1q0.5 0 0.5-0.4zm0.3 1.4l1 0.4q-0.1-0.1-0.1-0.8 0-0.4-0.5-0.3h-0.4zm2.8 3.2q-0.1-0.1-0.3-0.5-0.3-0.4-1.1-0.6v1.1q0.9-0.1 1.4 0zm1.4 5q0 0-0.7-0.4-0.6-0.3-0.6-0.4 0-0.1 0.3 0.1v-0.8h-0.3q0 0-0.4 0.1-0.2 0-0.4-0.1-1.9 1.5-3.2 2.2 0 0.2-0.3 0.6-0.3 0.4-0.3 0.6 0 0 0.1 0l0.1-0.1v0.3q3.2-2 5.7-2.1zm-4.6-2q-0.2-0.2-0.4-0.2-0.9 0-0.9 0.4 0.3 0.3 0.9 0.3 0.3-0.3 0.4-0.5zm4.5 7.4q0-0.7-0.4-0.7l-0.5 0.3q-0.3 1.1-0.3 1.6 0 0.6 0.3 0.6 0.9 0 0.9-1.8zm-4.3-0.4q-0.2 0-0.9 0 0 0 0-1.8l-0.7-0.4h-0.4q-0.1 0.1-0.1 0.4-0.1 0.2-0.6 0.3 0.1 0.3 0.4 1.5l1 0.3-0.1 0.1q0.2 0 0.8-0.2 0.6-0.1 0.6-0.2zm65.2-32.6v0.7h-0.7v0.7l-1.4-0.7 1.1-0.7q-0.4-0.2-0.4-0.4l0.4-0.6zm4.6 15.2q-0.8 0-2.1-0.3l0.3-1.1q-0.6-0.1-1.1-0.4v-0.7q0 0-1.6-0.3-1.2-0.3-1.2-0.8 0-0.4 1.5-0.4-0.1 0 3.8 0.5 0.2 2.2 0.4 3.5zm-6-3.5q0 0.2-0.4 0.7h-0.2q-0.2 0.1-0.2-0.2l0.4-0.5 0.3-0.1q0.1 0 0.1 0.1zm1.9 2.3l-0.5 0.5h-0.2q-0.6 0-0.6-0.4l0.4-0.3h0.5q0.4 0 0.4 0.2zm-2.3-0.4q0 0.2-0.2 0.2h-0.2q-0.3-0.7-0.3-1.3 0-0.2 0.1-0.2 0.1 0 0.2 0.1 0.4 0.9 0.4 1.2zm-1.8-1.2q-0.8-0.5-0.8-0.8 0.1-0.3 0.6-0.3 0.1 0 0 0.5 0 0.5 0.2 0.6zm18.8 20.9q-0.1 3.1-0.7 9.2-1.2 0.2-2.4 0.2-0.8 0-2.5-0.1-1.7-0.1-2.5-0.1 0.4-1.8 0.4-2.5 0-0.6-0.4-2.4h-0.3q0.4 0-1.9-0.4 0-0.2 0 0.8 0 0.4 0.4 0.3l-0.4 0.7q-0.5-0.1-1.7-0.4 1-2.2 1-2.9l-0.3-0.6q-0.1 0.3-0.8 0.3h-0.3q0 0 0 2.5-0.8 0.3-0.8 0.7 0 0.1 0.5 1.8l-0.8 0.3h-0.7v-1.7q-0.9-0.5-1.8-0.5-0.8-0.1-1.7-0.2v-0.7q-0.1-0.1-0.2-0.1-0.4 0-0.5 0.4 0 0 1.4 1.4h-0.3q-0.4-0.1-0.4 0.4 0 1 0 1h0.7v-0.7l0.7-0.7v1.8q0.3 0.1 0.7 0.1 0.6-0.2 0.7-0.2 0.3 0 0.4 0.1l-0.7 1.4h-17.8q0.1 0 0.1-0.2 0-0.1-0.1-0.4-0.2-0.3-0.2-0.5 0-0.5 0.9-0.3l0.8-1.1q0.5-0.2 1.2-0.1 1.2 0.1 1.2 0.1v-0.7q0.3 0.1-1.9 0.1l-0.5-0.1q0-0.7-1.2-0.7h-0.3v0.7q-0.7 0.1-2.1 0.4 0.5 0.1 0.9 0.3 0.8 0.3 0.8 0.5-1.1 0.8-1.7 1.3l-1.4-1.1q-0.2 0-0.6 0.1-0.3 0-0.5 0-0.2 0-0.3-0.1l0.7-1h-0.7v-1.2-0.6h0.1q0.3 0 0.3-0.6 0-0.5-0.4-0.5-0.9 0-1.2 1.2-0.1 1-0.2 2 0.5 0 1.4 0.4h-1.1q-0.1 0.7-0.7 1.1v0.1q0 0.1 0.2 0.4 0.2 0.4 0.2 0.7v0.2h-1.1v-0.8q0.1-1.2-0.1-3.2-0.3-2.3-0.3-3.2 0-0.3 0.2-1 0.2-0.7 0.2-1l-0.7-0.4v-4.3q-0.1 0.1-0.5 0-0.4 0-0.4-0.1 0-0.1 0.4-0.1 0.5-0.1 0.5-0.1v-3.6l1.8-0.7q0.3 0.3 0.5 1 0.2 0.7 0.6 0.9 0.6 0.3 2.2 0.3 0.9 0 0.9-0.2 0-0.1-0.3-0.2-0.5-0.2-0.6-0.4-0.1-0.6-0.2-0.7h-1l0.3-1q-0.2-0.2-0.6-0.5 0.3-0.2 1-0.2v-0.7q-0.4-0.1-0.7-0.7l-0.4-0.1q-0.5 0-1.2 0.3-1.1 0.4-1.3 0.5-0.5-2.5-0.5-2.4 0-0.5 0.8-1.2 0.6-0.5 1.2-1v-1.1l-1.5 0.1-0.7-0.1q0.5-3 0.5-7.2 0 3.6 0-7.2 0-1.1 0.6-9.4l0.7-0.3q1.5 0 4.5 0.3 2.9 0.4 4.4 0.4 1 0 3-0.2 2-0.2 3-0.2l-0.7 1.4q0.6-0.1 0.8-0.5 0.1-0.4 0.3-0.9 1.3 0 4-0.3 2.7-0.4 4.1-0.4 1.6 0 2.5 0.4v0.7q0.5 0.2 1.4 0.7 0.1-0.4 0.2-1l-0.2-0.4h0.7q0.4 0.5 1.4 1v1.5q1-0.3 1-0.4 0-0.1-0.2-0.4 0.7-0.1 1.5-0.3 0.4-0.1 1.6-1.1h0.3q0.3 0 0.3 0.5 0 0.4 0.8 0.4 0.5 0 1.1-0.4 0.8-0.4 1.1-0.5-0.1 3.1-0.4 9.2l-1.2 0.1-12.2-0.1q1.7-2.1 1.7-2.6l-0.3-0.5q1.3-0.4 2.7-0.7 2.2-0.6 2.1-1.2l-0.2-0.6q-0.7 0.1-1.1 0.7h-0.3q-0.2 0-0.4-0.2-0.2-0.2-0.4-0.2h-0.3v0.7q-1.5 0.1-4.6 0-0.2 0.5-0.4 1-0.1 0.5-0.6 0.5-0.5 0-0.9-0.4-0.3-0.4-0.7-0.4h-0.2l0.3 1.1q-0.3 0.2-0.7 0.7 0.5 0.2 0.5 0.2l-0.1 0.2q0.3 1.3-0.7 1.3-0.4 0-1.1-0.1-0.8-0.2-1.1-0.2 0.4-0.2 0.4-2 0-1.5-0.2-1.8-0.2-0.1-1.2-0.2-0.2-0.1-0.4-0.2 0.1 0.3 0.7 0.7v0.2q0 0.3-0.3 0.9 0.3 0.1 0.3 0.6v0.4q0-0.2 0.2-0.2 0.2 0 0.2 0.6-1 1.8-2 2-0.3 0.1-3 0.1-0.5 2.5-1.1 7.5-0.3-0.2-1-0.4v-0.7q-0.2-0.1-0.5-0.1-1.9 0-1.7 0.1 0 0-0.2 0.6 0 0.3-0.5 0.5 0.5 0.3 0.5 0.7 0 0.2-0.1 0.3-0.4-0.1-0.8-0.1-0.9 0-1 1.2-0.2 0.1-0.4 0-0.3-0.1-0.4-0.1-0.1 0-0.2 0.1v0.7q-0.9 0.4-0.9 0.4 0 0.2-0.6 1 0 0 1.2 0 0.7 0 0.3-1.1 0.9 0 1.9-0.2 0.9-0.1 0.9-1.2 0.6 0 1.8-0.3l0.3-1.1h0.2q0.5 0 1.4 0.6 1 0.5 2.1 0.5 1 0 2.9-0.2 2-0.2 3-0.2l0.4 1.1h-0.2q-0.2-0.1-0.4 0.3-0.1 0.3-0.2 0.4 0.3 0 0.9-0.1 0.6 0 0.8 0 0.2 0 0.4 0 0.3 0.1 0.4 0.1v0.7q0.4 0.3 1.1 0.7-2.8-0.3-2.5-0.3-0.7 0-0.8 0 0.1 0 0.2 0.2 0.1 0.1-0.1 0.1 1.4 0.4 4.6 1.4v0.7h0.1q1.1 0 1.1-0.4 0-0.4-2.6-1.7 0.8 0 2.5 0.4v0.7q0.6 0.3 0.9 1.7 0.3 1.2 1.2 1.2 0.2 0 0.2-0.3 0-0.4-0.3-1-0.2-0.7-0.3-0.9h2.9v4.2q-0.8 0-0.8-0.6 0-0.6 0.4-1.1 0-0.1-0.2-0.5-0.2-0.2-0.1-0.6h-1.1q0 0 0 2.3v0.5q-1.2 0-4.2-0.2-2.7-0.2-4.2-0.2l-1.2 0.1-0.7 0.7q-0.9 0.2-2.1 0.2-0.7 0-2.1-0.1-1.5-0.1-2.2-0.1 0 0 0 2.8 0.2 0-0.5 0-0.2 0-0.2 0.2v0.2l1.1 0.3v8.9q0.8 0.1 2.3 0.1 1.4 0 4.3-0.3 2.9-0.2 4.4-0.2 1.2 0 3.5 0.4 2.4 0.4 3.6 0.4 0.4 0 1-0.8h4 1.7l0.7 1.1q0.6 0 0.8-0.5 0.1-0.6 0.8-0.6 0.3 0 0.9 0.2 0.6 0.2 0.7 0.2zm-9.2 8.2v0.7h-1.1q-1-1-1-1.4 0-0.1 0.1-0.1 0.5 0 0.5 0.5l0.1 0.3 1-0.1q0.2 0 0.4 0.1zm-28.9-18.3q0 0.3-0.5 0.5l-0.1-0.4q0-0.3 0.2-0.3 0.4 0 0.4 0.2zm-2.2 0.4l-0.8 0.8q-0.1 0.3-0.1-0.7 0-0.3 0.4-0.3 0.5 0 0.5 0.2zm4 18.2h1.2l-0.7 1.1q-1.9-0.3-1.9-0.8 0.4-0.4 1.4-0.3zm23.2-45.4h0.7q-0.1-0.1-0.1-0.5 0-0.2-0.6-0.2zm-9.9-1.8h0.7q-0.2 0-0.2-0.5 0-0.2-0.5-0.2zm0.3 0.8q-0.5-0.1-1.4-0.4v2.1h1.1q-0.2-0.1-0.2-0.4 0-0.5 0.5-1.3zm-5.7 7.2q-0.6-0.4-1.4-0.5l0.7 0.7h0.2q0.5 0 0.5-0.2zm26.5 33.6q0-0.1-0.5-0.4-0.6-0.3-0.8-0.4l0.7 0.7q0.3 0.1 0.5 0.1 0.1 0 0.1 0zm-20.7-20.8q-0.3-0.4-1.1-0.5l0.3 0.7h0.4q0.4 0 0.4-0.2zm-2.2-1.4q-0.1-0.2-0.4-0.2-0.7 0-0.7 0.4 0.2 0.5 0.7 0.7 0.4-0.6 0.4-0.9zm21.2 21.8q-0.3-0.4-1-0.4v0.7q1 0 1-0.3zm-16.3-16.2q-0.5-0.4-1-0.5v0.7l0.5 0.1q0.5 0 0.5-0.3zm16.6 17.4q-0.4-0.4-0.9-0.5v0.7h0.4q0.5 0 0.5-0.2zm-20.7-20.5l0.3-0.6q-0.7 0.1-1.5 0l0.4 1.4q1 0 1-0.3-0.2-0.3-0.2-0.5zm-1.4-0.2q-0.5-0.9-1.6-0.9-0.3 0-0.9 0.1-0.5 0.1-0.8 0.1v0.7q2.1 0.3 2.6 0.3 0.7 0 0.7-0.3zm-4.2-1q-0.1-0.2-0.4-0.2-0.4 0-0.9 0.4-0.5 0.3-0.5 0.7 0.1 0.2 0.4 0.2 0.4 0 0.9-0.4 0.5-0.3 0.5-0.7zm1.4 3.1l-1.6-0.7 0.4 1.1q0.3-0.1 0.7-0.1 0.5-0.1 0.5-0.3zm-5.1 0.7h0.7q-0.1-0.1-0.1-0.5 0-0.2-0.6-0.2zm-1 0.7l0.3-1.4h-1.1q0 0.2 0.7 0.7v1q-0.1 0.1 0 0.1zm-2.6-1l0.4 0.1q-0.5-0.2-0.1-0.4-0.2-0.3-1-0.8zm16.8 19.5q0-0.2-2.3-0.7l-0.3 0.7q0 0 2.2 0 0.2 0 0.4 0zm-15.2-13.1q-0.2-0.3-0.9-0.7l0.4 0.7q0.2 0.1 0.4 0.1 0.1 0 0.1-0.1zm7.1 10.1q-0.2-0.2-0.6-0.2-0.4 0-0.4 0.2 0 0.2 0.4 0.5 0.6 0 0.6-0.5zm-4.5-3.4q-0.1 0-0.1-0.5 0-0.2-0.2-0.2-0.8 0-0.8 0.2 0.7 0.4 1.1 0.5zm-2.4-1.7l-0.4-1.1-1.1 0.3v-1h-1l-0.4 1.4q1 0.1 2.9 0.4zm6.7 8.1h0.7q-0.1-0.1-0.1-0.5 0-0.2-0.6-0.2zm-7.4-6.7l0.3-0.7h-1.4q-0.3-0.1-1 0-0.7 0-0.7 0.1zm-1.4 2.7q0-0.8-0.4-2.3-0.5 1.2-0.7 3.2h0.3q0.5 0 0.5-0.2 0-0.1-0.1-0.2l0.2 0.1q0.2 0 0.2-0.6z"/><path class="f" d="m362.8 313.8c2.9-11.8 12.8-23.3 12.8-23.3 0 0 5.7-114.8 124.4-114.8 118.7 0 124.5 114.8 124.5 114.8 0 0 9.8 11.5 12.7 23.3 2.8 11.8-17.7 35.8-13.5 52.6 4.2 16.8 7.9 25.9-5.4 46.2-13.2 20.2-38.7 1.6-50.2 12.6-11.5 11 2.1 24.6 2.1 24.6-3.9 44.4-23.6 51.2-23.6 51.2 2.5-5.6-1.1-18-1.1-18-4.4 14.1-18.4 17.2-18.4 17.2 2.3-6.1-1.4-15.3-1.4-15.3-3.5 10-15.7 16.1-15.7 16.1-0.5-12.2-10-24.9-10-24.9 0 0-9.5 12.7-10 24.9 0 0-12.2-6.1-15.7-16.1 0 0-3.7 9.2-1.4 15.3 0 0-14-3.1-18.4-17.2 0 0-3.6 12.4-1 18 0 0-19.8-6.8-23.7-51.2 0 0 13.6-13.6 2.1-24.6-11.4-11-36.9 7.6-50.2-12.6-13.3-20.3-9.6-29.4-5.4-46.2 4.2-16.8-16.3-40.8-13.5-52.6z"/><path fill-rule="evenodd" class="e" d="m551.4 488.1c0.3-3.9 0.5-7.8 0.3-11.7-0.2-3.8-0.2-5.6-2.9-8.3-4.9-4.8-10.5-6.6-16.7-9.6 3.6 4.9 6.4 7.9 8.3 13.6 0.7 1.9 1.2 3.9 1 5.9-0.4 2.4-2 4.4-3.5 6.4q-2.3 2.8-4.7 5.7c0.7-3.5 0.4-7.3-0.6-10.7-0.4-1.5-1-2.9-1.9-4.2-1.1-1.6-2.5-2.9-3.9-4.1-3.7-3.2-7.4-6.4-11.7-8.9 2.6 4.2 4.6 8.9 4.7 13.8 0.1 4.8-2 10-6.2 12.5 0 0-8.9-17.4-13.6-22.1-4.7 4.7-13.6 22.1-13.6 22.1-4.2-2.5-6.3-7.7-6.2-12.5 0.1-4.9 2.1-9.6 4.7-13.8-4.3 2.5-8 5.7-11.7 8.9-1.4 1.2-2.8 2.5-3.9 4.1-0.9 1.3-1.5 2.7-1.9 4.2-1 3.4-1.3 7.2-0.6 10.7q-2.4-2.9-4.7-5.7c-1.5-2-3.1-4-3.4-6.4-0.3-2 0.2-4 0.9-5.9 1.9-5.7 4.7-8.7 8.3-13.6-6.1 3-11.8 4.8-16.7 9.6-2.7 2.7-2.7 4.5-2.9 8.3-0.2 3.9 0.1 7.8 0.3 11.7-4.3-12.2-6.7-25.3-8.1-38.2 4.2-9.6 10.1-18.8 18.5-25.1-4.9 1-9.8 1-14.6-0.4 6-0.3 11.8-2.6 16.8-5.9 5-3.3 9.3-7.5 13.3-12-0.7 8.6-2.7 17.5-5.6 25.6 8.8-12.9 18.3-25.3 27.8-37.7 1.5-1.9 2.2-7 3.3-9.2 1.1 2.2 1.8 7.3 3.3 9.2 9.5 12.4 19 24.8 27.8 37.7-2.8-8.1-4.9-17-5.6-25.6 4 4.5 8.3 8.7 13.3 12 5.1 3.3 10.8 5.6 16.8 5.9-4.8 1.4-9.7 1.4-14.6 0.4 8.4 6.3 14.3 15.5 18.5 25.1-1.4 12.9-3.8 26-8.1 38.2zm-35.3-62.2c-7-6.4-12.1-13.1-16.1-17.1-4 4-9.1 10.7-16.1 17.1-7 6.3-7.8 6.7-4.5 15.7 3.4 9 9.4 8.1 9.4 8.1-3.2-0.8-4.9-5.7-4.9-5.7 0 0 4.5 2.9 6.9 3.1 2.3 0.1 5.1-4.4 9.2-4.4 4.1 0 6.9 4.5 9.2 4.4 2.4-0.2 6.9-3.1 6.9-3.1 0 0-1.7 4.9-4.9 5.7 0 0 6.1 0.9 9.4-8.1 3.3-9 2.5-9.4-4.5-15.7z"/><path class="e" d="m500 175.7c-58 0-89 27.4-105.6 55.4l0.4 0.5c27.9-35.3 89.4-47.3 122.3-41.9 33 5.3 65.3 21 80.6 39.7 15.3 18.6 25.2 51.2 25.2 51.2l0.3-0.5c-4.7-28.2-26.5-104.4-123.2-104.4z"/><path class="g" d="m619.9 256c0 0-1.7-3-5-8.4-3.3-5.3-8.1-13-15.1-21.6-3.6-4.2-7.8-8.6-12.7-12.7-5-4.1-10.7-7.9-17.1-11.4-6.4-3.5-13.4-6.6-20.8-9.4-7.4-2.8-15.3-5.2-23.4-7.1-8.2-1.9-16.3-3.2-24.2-3.8-7.9-0.6-15.5-0.6-22.7 0-14.5 1.4-27.2 5.1-37.3 9.6-2.5 1.1-4.9 2.3-7.1 3.4-2.2 1.3-4.2 2.4-6.1 3.6-3.8 2.3-6.8 4.6-9.3 6.5-2.4 2-4.3 3.6-5.4 4.7-1.3 1.1-1.9 1.7-1.9 1.7 0 0 0.6-0.6 1.6-1.9 1.1-1.3 2.8-3 5-5.3 2.3-2.2 5.2-4.8 8.8-7.5 1.8-1.4 3.8-2.7 5.9-4.1 2.2-1.4 4.5-2.8 7-4.2 10-5.4 23.1-10.1 38.2-12.2 7.5-0.9 15.5-1.2 23.7-0.8 8.3 0.5 16.8 1.7 25.3 3.7 8.5 2 16.6 4.6 24.3 7.7 7.6 3 14.7 6.5 21.3 10.4 6.5 3.9 12.3 8.3 17.2 12.9 5 4.7 9 9.5 12.3 14.2 3.4 4.6 6 9 8.2 12.9 2.2 3.9 3.9 7.4 5.3 10.2 2.7 5.7 4 8.9 4 8.9z"/><path class="e" d="m597.6 248.5c0 0-3.2-4.3-5-16.9 0 0-10 34.8 4.3 57.1 14.2 22.3 28.7 24.6 27.7 37.2-1 12.6-5.5 27.6-2.6 34.9 0.2 0.5 0.6 0.8 1.1 1-0.1-16.4 16.7-37.2 14.1-48q-0.1-0.4-0.3-0.9l-20.8-29.1z"/><path class="g" d="m627.9 334.3c0 0 0.2-1.2 0.6-3.4 0.4-2.2 1-5.4 1.2-9.3 0.1-1.9 0-3.9-0.3-6-0.4-2.1-1.1-4.2-2.3-6.2-2.2-4.1-6.4-7.9-10.4-12.9-7.8-9.8-12.4-20.4-14.7-28.2-1.2-3.9-1.9-7.1-2.3-9.3-0.3-2.2-0.5-3.5-0.5-3.5 0 0 0.6 1.2 1.5 3.2 1 2 2.4 4.9 4.3 8.4 3.7 7 9.4 16.2 16.8 25.4 1.9 2.3 3.7 4.5 5.6 6.9 1.8 2.3 3.5 4.8 4.7 7.6 1.2 2.7 1.7 5.6 1.7 8.2 0 2.6-0.4 4.9-0.9 6.9-1 4.1-2.5 7-3.4 9.1-1 2-1.6 3.1-1.6 3.1z"/><path class="e" d="m402.4 248.5c0 0 3.2-4.3 5-16.9 0 0 10 34.8-4.3 57.1-14.2 22.3-28.7 24.6-27.7 37.2 1 12.6 5.5 27.6 2.6 34.9-0.2 0.5-0.6 0.8-1.1 1 0.1-16.4-16.7-37.2-14.1-48q0.1-0.4 0.3-0.9l20.8-29.1z"/><path class="g" d="m372.1 334.3c0 0-0.6-1.1-1.6-3.1-0.9-2.1-2.4-5-3.4-9.1-0.5-2-0.9-4.3-0.9-6.9 0-2.6 0.6-5.5 1.7-8.2 1.2-2.8 2.9-5.3 4.7-7.6 1.9-2.4 3.8-4.6 5.6-6.9 7.4-9.2 13.1-18.4 16.8-25.4 1.9-3.5 3.3-6.4 4.3-8.4 1-2 1.5-3.2 1.5-3.2 0 0-0.1 1.3-0.5 3.5-0.4 2.2-1.1 5.4-2.3 9.3-2.3 7.8-6.8 18.4-14.7 28.2-4 5-8.1 8.8-10.4 12.9-1.2 2-1.9 4.1-2.3 6.2-0.3 2.1-0.4 4.1-0.3 6 0.2 3.9 0.8 7.1 1.2 9.3 0.4 2.2 0.6 3.4 0.6 3.4z"/><path class="d" d="m491.5 505.1q0 0-0.3-0.6c-0.1-0.4-0.4-1-0.5-1.8-0.5-1.6-0.9-4.1-0.8-7.1 0-3 0.6-6.6 1.8-10.4 0.6-1.9 1.3-3.8 2.2-5.8 0.1-0.1 0.4-0.7 0.6-1.1l0.7-1.4q0.7-1.4 1.5-2.7 1.7-2.6 3.3-5.4 1.7 2.8 3.3 5.4 0.8 1.3 1.5 2.7l0.7 1.4c0.2 0.4 0.5 1 0.6 1.1 0.9 2 1.6 3.9 2.2 5.8 1.2 3.8 1.8 7.4 1.8 10.4 0.1 3-0.3 5.5-0.7 7.1-0.2 0.8-0.5 1.4-0.6 1.8q-0.2 0.6-0.2 0.6 0 0-0.1-0.7c-0.1-0.4-0.1-1-0.2-1.8-0.2-1.6-0.7-3.8-1.6-6.4-0.8-2.6-2.1-5.6-3.7-8.8q-1.3-2.4-2.8-5c-0.1-0.3-0.1-0.1-0.1-0.2q-0.1 0-0.1 0.1 0 0 0 0 0 0 0 0 0-0.1-0.1-0.1c0 0.1 0-0.1-0.1 0.2q-1.5 2.6-2.7 5c-1.7 3.2-3 6.2-3.8 8.8-0.9 2.6-1.4 4.8-1.6 6.4-0.1 0.8-0.1 1.4-0.2 1.8q0 0.7 0 0.7z"/><path class="d" d="m626.2 296.3c0 0-0.1-1.4-0.2-4-0.1-1.3-0.3-2.9-0.5-4.8-0.1-0.9-0.2-1.9-0.4-3q-0.2-1.6-0.5-3.4c-1.6-9.7-5.1-23.7-13.3-39-4.1-7.6-9.6-15.5-16.3-23-6.9-7.5-15-14.6-24.7-20.6-2.4-1.5-4.9-2.8-7.5-4.3-2.6-1.2-5.1-2.6-7.9-3.7-2.7-1.3-5.5-2.3-8.3-3.3-1.5-0.5-2.9-1-4.4-1.4l-2.2-0.7-2.2-0.6c-11.9-3.3-24.7-4.8-37.8-4.9-13.1 0.1-25.9 1.6-37.8 4.9l-2.2 0.6-2.2 0.7c-1.5 0.4-2.9 0.9-4.3 1.4-2.9 1-5.7 2-8.4 3.3-2.7 1.1-5.3 2.5-7.9 3.7-2.6 1.5-5.1 2.8-7.5 4.3-9.6 6-17.8 13.1-24.7 20.6-6.7 7.5-12.1 15.4-16.3 23-8.2 15.3-11.7 29.3-13.3 39q-0.3 1.8-0.5 3.4c-0.2 1.1-0.3 2.1-0.4 3-0.2 1.9-0.4 3.5-0.4 4.8-0.2 2.6-0.3 4-0.3 4 0 0 0-1.4-0.1-4q0-2 0.1-4.8c0-1 0-2 0.1-3.1q0.2-1.6 0.3-3.5c0.5-4.9 1.3-11 3-17.8 1.7-6.9 4.2-14.6 8-22.8 3.8-8.1 9-16.5 15.8-24.7 6.8-8.1 15.1-16.1 25.1-22.7 2.5-1.7 5.1-3.2 7.8-4.8 2.7-1.4 5.4-2.9 8.3-4.2 2.8-1.3 5.8-2.5 8.8-3.7 1.5-0.5 3-1 4.5-1.5l2.3-0.8 2.4-0.7c12.5-3.7 26-5.4 39.8-5.5 13.8 0.1 27.3 1.8 39.8 5.5l2.4 0.7 2.3 0.8c1.5 0.5 3.1 1 4.6 1.5 2.9 1.2 5.9 2.4 8.7 3.7 2.9 1.3 5.6 2.8 8.3 4.2 2.7 1.6 5.3 3.1 7.8 4.8 10 6.6 18.4 14.6 25.2 22.7 6.7 8.2 11.9 16.6 15.7 24.7 3.8 8.2 6.3 15.9 8 22.8 1.8 6.8 2.6 12.9 3 17.8q0.2 1.9 0.3 3.5c0.1 1.1 0.1 2.1 0.1 3.1q0.1 2.8 0.1 4.8c0 2.6-0.1 4-0.1 4z"/><path class="d" d="m382.8 352.1c0 0-0.4 1.1-1.2 3.2-0.7 2.1-1.8 5.2-2.8 9-1.1 3.8-2.1 8.3-2.8 13.3-0.7 5.1-1 10.6-0.3 16.2 0.3 2.8 0.9 5.4 1.8 7.8 1 2.4 2.2 4.7 3.5 6.7 2.7 4.1 5.9 7.4 9 9.6 3 2.3 5.9 3.6 8 4.1q0.8 0.1 1.4 0.3 0.7 0 1.1 0 0.9 0.1 0.9 0.1 0 0-0.9 0.2-0.4 0.1-1.1 0.2-0.6 0.1-1.5 0.1c-2.3 0.1-5.7-0.5-9.5-2.3-3.8-1.8-8-4.8-11.6-9.1-1.8-2.2-3.5-4.7-4.8-7.6-1.3-2.8-2.2-6.1-2.6-9.3-0.7-6.5 0.1-12.7 1.4-18 1.4-5.3 3.2-9.8 5.1-13.5 1.8-3.6 3.6-6.4 4.9-8.2 1.3-1.9 2-2.8 2-2.8z"/><path class="d" d="m443.7 310.8c0 0 0.2 0.7 0.5 2 0.4 1.2 1 3.1 1.8 5.5 1.6 4.8 4.4 11.6 9 19.3 2.3 3.8 5 7.8 8.2 12.1 3.2 4.2 6.7 8.6 10.8 12.7 2.1 2 4.3 3.9 6.7 5.6 0.6 0.4 1.2 0.8 1.8 1.1 0.6 0.5 1.3 0.8 1.9 1.1l0.5 0.3 0.3 0.1 0.4 0.2 2.1 1 1 0.5 0.3 0.1c0 0 0.2 0 0.1 0.1v0.6l-0.2 2.3-0.2 1.2c-0.1 0.4-0.2 0.8-0.3 1.1q-0.2 0.7-0.4 1.4-0.5 1.4-1.3 2.7c-1 1.8-2.4 3.4-4.2 4.6l-0.7 0.5-0.7 0.4c-0.5 0.2-1 0.5-1.5 0.7-1.1 0.3-2.1 0.6-3.2 0.7-2.1 0.3-4.2 0-6.1-0.3-3.8-0.9-7.2-2.4-10.3-4.1-3.2-1.7-6-3.7-8.7-5.9-4.9-4.4-9.6-8.6-14.1-12.6-8.9-7.9-17.1-14.9-24.4-20.1-3.7-2.5-7.1-4.6-10.4-5.9-1.6-0.7-3.1-1.2-4.6-1.4q-2.2-0.4-4-0.1c-2.4 0.5-4 1.7-5 2.6-0.5 0.5-0.8 0.9-1 1.1q-0.3 0.4-0.3 0.4 0 0 0.2-0.4c0.2-0.3 0.5-0.8 1-1.3 0.8-1 2.3-2.5 4.9-3.3 1.3-0.3 2.7-0.5 4.4-0.4 1.6 0 3.3 0.4 5.1 0.9 3.6 1.1 7.3 3 11.3 5.3 8 4.6 16.8 11.1 26.2 18.7q3.5 2.8 7.1 5.8 3.6 3 7.3 6.2c4.8 3.7 10.6 7.2 16.5 8.5 1.5 0.3 2.9 0.4 4.2 0.3 0.7-0.1 1.2-0.3 1.8-0.4 0.3-0.1 0.5-0.3 0.8-0.4l0.4-0.2 0.4-0.2c0.9-0.7 1.8-1.6 2.5-2.7q0.5-0.9 0.8-1.8 0.2-0.4 0.4-0.9c0-0.2 0-0.1 0-0.1v-0.1c0 0 0.1 0 0-0.1h-0.1l-0.9-0.5c-0.8-0.5-1.6-0.9-2.3-1.4-0.7-0.4-1.4-0.9-2-1.4-2.7-2-5.1-4.3-7.2-6.6-4.2-4.5-7.6-9.3-10.5-13.8-2.9-4.5-5.5-8.9-7.5-13.1-4-8.3-6.1-15.5-7.2-20.4-0.6-2.5-0.9-4.5-1.1-5.8-0.2-1.3-0.3-2-0.3-2z"/><path class="d" d="m520 432.8c-2.2-8.2-11.1-4.4-17.7-18-0.4-0.8-1.4-1.2-2.3-1.1-0.9-0.1-1.8 0.3-2.3 1.1-6.6 13.6-15.5 9.8-17.6 18-0.6 1.9 0.5 9.2 1.7 10.9 1.4 2.1 0.3-6.5 1.7-4.4 4.4 6.5 9.3 4.5 11 2.5 1.6-2.1 3.1-4.2 5.5-5.5 2.4 1.3 3.9 3.4 5.6 5.5 1.6 2 6.6 4 10.9-2.5 1.4-2.1 0.3 6.5 1.7 4.4 1.2-1.7 2.3-9 1.8-10.9z"/><path class="d" d="m410.3 362.8c0 0 0.8 1.3 2.2 3.7 1.4 2.4 3.6 5.7 6.6 9.5 3.1 3.7 7.1 7.8 12.2 11.4 5.1 3.7 11.2 6.8 18.1 8.7q1.5 0.3 3 0.7c0.5 0.1 1 0.2 1.5 0.3q0.7 0.1 1.5 0.2 1.5 0.2 3 0.4 1.4 0.1 2.9 0.2 0.7 0 1.5 0.1 0.7 0 1.4 0 1.4-0.1 2.7-0.1c0.4 0 0.7 0.1 1.3 0.1q-0.1-0.2-0.3-0.5l-0.1-0.4c-0.1-0.1-0.1-0.1-0.2-0.2l-0.5-0.6q-1.8-2.5-3.5-4.6c-2.3-2.9-4.3-5.3-6-7.2-1.8-2-3.3-3.4-4.3-4.4q-0.8-0.7-1.3-1.1-0.4-0.3-0.4-0.3 0 0 0.5 0.2 0.5 0.3 1.5 0.8c1.2 0.7 3 1.8 5.1 3.5 2.2 1.6 4.6 3.7 7.3 6.2q2.1 1.9 4.2 4.1l0.6 0.6 0.9 0.9q0.9 1 1.8 2.1 2 2.1 4.1 4.4c-3.1 0.5-6.5 1.2-10 1.7q-1.6 0.2-3.2 0.3-0.8 0.1-1.6 0.1-0.8 0-1.6 0-1.6 0-3.3 0c-1.1-0.1-2.2-0.2-3.3-0.3q-0.9-0.1-1.7-0.2c-0.6-0.1-1.2-0.3-1.7-0.4q-1.7-0.3-3.4-0.7c-7.8-2.1-14.5-6-19.7-10.5-5.2-4.5-8.9-9.4-11.5-13.7-2.5-4.5-4.1-8.2-5-10.9-0.8-2.6-1.3-4.1-1.3-4.1z"/><path class="d" d="m374.6 378.7q0-0.1 0.2-1.7 0.1-0.8 0.2-2 0.1-0.6 0.1-1.2 0.1-0.7 0.1-1.5c0.3-4 0.5-10-0.8-17-0.6-3.5-1.7-7.3-3.3-11.1-0.7-1.9-1.7-3.8-2.7-5.8-1.1-2-2.2-4-3.4-6.2q-0.9-1.6-1.7-3.2-0.9-1.7-1.8-3.4c-0.7-1.2-1.3-2.5-1.8-4-0.5-1.5-0.8-3.2-0.7-5 0.1-1.7 0.5-3.3 1-4.8 0.3-0.7 0.6-1.4 0.9-2.1 0.3-0.7 0.9-1.6 1.3-2.3q0.6-0.9 1.3-1.7l1.3-1.7q1.2-1.7 2.5-3.3 5.2-6.6 9.8-12.9c3.1-4.2 6-8.3 8.7-12.3 5.2-8 9.6-15.5 12.8-22 0.8-1.6 1.5-3.2 2.2-4.7 0.7-1.5 1.4-2.9 1.9-4.2q0.8-2.1 1.5-3.8c0.4-1.1 0.9-2.2 1.2-3.2 1.3-3.9 2-6 2-6 0 0-0.4 2.2-1 6.3-0.2 1-0.4 2.2-0.7 3.4q-0.5 1.8-1 4c-0.3 1.4-0.8 2.9-1.3 4.5-0.6 1.6-1 3.3-1.7 5-2.5 7-6.2 15.1-11.1 23.7-2.4 4.3-5.2 8.6-8.2 13.1-3 4.4-6.3 8.8-9.7 13.2q-1.3 1.7-2.6 3.3l-1.2 1.6-1.2 1.6c-0.2 0.2-0.2 0.4-0.4 0.6-0.1 0.2-0.2 0.3-0.4 0.6-0.2 0.5-0.5 1.1-0.6 1.6q-0.7 1.6-0.8 2.9c-0.1 0.9 0 1.8 0.3 2.8 0.2 1 0.7 2 1.2 3.1q0.8 1.7 1.6 3.4c0.5 1.1 1.1 2.3 1.5 3.4 1 2.1 2.1 4.3 3 6.4 0.9 2.2 1.8 4.4 2.4 6.5 1.3 4.3 2 8.5 2.3 12.3 0.5 7.5-0.6 13.6-1.5 17.6q-0.2 0.7-0.3 1.4-0.2 0.7-0.4 1.2-0.3 1.2-0.5 2-0.5 1.5-0.5 1.6z"/><path class="d" d="m617.2 352.1c0 0 0.8 0.9 2.1 2.8 1.3 1.8 3 4.6 4.9 8.2 1.8 3.7 3.7 8.2 5 13.5 1.3 5.3 2.1 11.5 1.4 18-0.4 3.2-1.3 6.5-2.6 9.3-1.3 2.9-3 5.4-4.7 7.6-3.7 4.3-7.8 7.3-11.6 9.1-3.9 1.8-7.3 2.4-9.6 2.3q-0.9 0-1.5-0.1-0.7-0.1-1.1-0.2-0.9-0.2-0.9-0.2 0 0 0.9-0.1 0.4 0 1.1 0 0.6-0.2 1.4-0.3c2.1-0.5 5-1.8 8.1-4.1 3-2.2 6.2-5.5 8.9-9.6 1.3-2 2.5-4.3 3.5-6.7 0.9-2.4 1.5-5 1.8-7.8 0.7-5.6 0.4-11.1-0.3-16.2-0.7-5-1.7-9.5-2.8-13.3-1-3.8-2-6.9-2.8-9-0.8-2.1-1.2-3.2-1.2-3.2z"/><path class="d" d="m625.4 378.7q0-0.1-0.4-1.6-0.3-0.8-0.6-2-0.2-0.5-0.3-1.2-0.2-0.7-0.4-1.4c-0.9-4-2-10.1-1.5-17.6 0.3-3.8 1-8 2.3-12.3 0.7-2.1 1.5-4.3 2.4-6.5 1-2.1 2-4.3 3-6.4 0.5-1.1 1-2.3 1.5-3.4q0.8-1.7 1.6-3.4c0.5-1.1 1-2.1 1.2-3.1 0.3-1 0.4-1.9 0.3-2.8q-0.1-1.3-0.7-2.9c-0.2-0.5-0.5-1.1-0.7-1.6-0.1-0.3-0.3-0.4-0.4-0.6-0.1-0.2-0.2-0.4-0.4-0.6l-1.1-1.6-1.3-1.6q-1.3-1.6-2.6-3.3c-3.4-4.4-6.7-8.8-9.7-13.2-3-4.5-5.8-8.8-8.2-13.1-4.9-8.6-8.6-16.7-11.1-23.7-0.6-1.7-1.1-3.4-1.6-5-0.5-1.6-1.1-3.1-1.4-4.5q-0.5-2.2-1-4c-0.3-1.2-0.5-2.4-0.7-3.4-0.6-4.1-1-6.3-1-6.3 0 0 0.7 2.1 2.1 6 0.2 1 0.7 2.1 1.2 3.2q0.6 1.7 1.5 3.8c0.5 1.3 1.2 2.7 1.8 4.2 0.7 1.5 1.4 3.1 2.2 4.7 3.3 6.5 7.6 14 12.9 22 2.6 4 5.5 8.1 8.6 12.3q4.6 6.3 9.8 12.9 1.3 1.6 2.6 3.3l1.2 1.7q0.7 0.8 1.3 1.7c0.4 0.7 1 1.6 1.3 2.3 0.3 0.7 0.6 1.4 0.9 2.1 0.5 1.5 0.9 3.1 1 4.8 0.1 1.8-0.2 3.5-0.7 5-0.5 1.5-1.1 2.8-1.7 4q-1 1.7-1.9 3.4-0.8 1.6-1.7 3.2c-1.2 2.2-2.3 4.2-3.4 6.2-1 2-1.9 3.9-2.7 5.8-1.6 3.8-2.6 7.6-3.3 11.1-1.3 7-1.1 13-0.8 17q0 0.8 0.1 1.5 0.1 0.6 0.1 1.2 0.2 1.2 0.2 2 0.2 1.6 0.2 1.7z"/><path class="d" d="m500 469.7c0 0 0.6 0.8 1.7 2.3 1 1.4 2.5 3.7 4.1 6.6 1.6 2.9 3.3 6.6 4.6 11q1.1 3.3 1.6 7.1l0.2 1v0.1q0.1 0.1 0.1 0.1 0.1 0.1 0.2 0.1c0-0.1 0.1-0.2 0.1-0.3q0 0 0 0l0.4-0.3c4.5-3.6 8.2-7.6 10.3-11.8 1.1-2.1 1.7-4.2 2-6.3 0.3-1.4-0.5-3.4-1.3-5.1-1.8-3.4-3.9-6-5.3-7.8-1.4-1.8-2.2-2.8-2.2-2.8 0 0 1.1 0.6 3 1.9 2 1.3 4.7 3.3 7.6 6.6 0.4 0.5 0.8 0.9 1.1 1.4 0.3 0.5 0.7 1 1 1.6 0.3 0.5 0.6 1.2 0.8 1.9 0.2 0.4 0.3 0.8 0.3 1.2 0.1 0.4 0.2 0.9 0.2 1.2 0.2 2.7-0.2 5.7-1.2 8.6-2 5.9-6.4 11.2-11.6 15.4-0.1 0-0.4 0.3-0.7 0.5l-0.8 0.6-1.7 1.3q-1.8 1.1-3.6 2.3-1.8 1.1-3.5 2.1-0.9 0.5-1.7 1l-0.8 0.5-0.8 0.5q0.6-4.4 1.1-8.5 0.1-2 0.2-3.8 0.1-1 0.1-1.8v-0.9c-0.1-2.2-0.2-4.4-0.5-6.5-0.5-4.1-1.3-7.9-2.1-11-0.8-3.1-1.6-5.6-2.1-7.3-0.5-1.8-0.8-2.7-0.8-2.7z"/><path class="d" d="m525.7 484.9c0 0 0.2 0.5 0.6 1.2 0.3 0.8 0.9 1.9 1.6 3.3 0.7 1.5 1.3 3.5 1.5 5.8q0 0.5 0.1 0.9v0.4l0.1 0.2q0 0.4 0.1 0.7 0.1 0.5 0.3 0.7c0 0.1 0.1-0.1 0.2-0.2l0.2-0.2q0.3-0.3 0.4-0.5c0.3-0.3-0.1 0 1.4-1.3 2.1-1.9 4.3-4 6.1-6.3 1.5-1.8 2.7-3.6 3.6-5.4q1.4-2.7 2-5.5 0.1-0.7 0.1-1.4c0.1-0.2 0.1-0.5 0.1-0.6q0-0.2 0-0.5c0.1-0.3-0.1-0.7-0.1-1-0.1-0.4-0.3-0.8-0.4-1.2-0.5-1.5-1.4-3-2.2-4.3-1.7-2.7-3.3-4.8-4.5-6.2-1.1-1.4-1.8-2.2-1.8-2.2 0 0 0.9 0.5 2.5 1.5 1.5 1 3.7 2.6 6.2 4.9 1.2 1.2 2.4 2.6 3.6 4.4 0.3 0.5 0.5 1 0.8 1.6 0.2 0.6 0.5 1.1 0.6 1.8q0.1 0.5 0.2 1.1c0 0.3 0 0.6 0 0.9q0 0.9 0 1.8c-0.2 2.4-0.7 4.9-1.8 7.4-0.9 2.4-2.4 4.7-4.1 6.8-2.3 2.7-4.8 5-7.4 6.8q-1.2 0.9-2.4 1.7-1.6 1.1-3.3 2.1-1.5 0.9-3 1.7-0.7 0.4-1.4 0.8c-0.4 0.2-1 0.6-1.3 0.6q0.7-3.7 1.3-7.1c0.2-1.1 0.4-2.1 0.5-3l0.1-0.7v-0.4q0.1-0.4 0.1-0.8c0.3-2 0.3-3.8 0.1-5.3-0.3-1.5-0.5-2.8-0.6-3.6-0.1-0.9-0.1-1.4-0.1-1.4z"/><path class="d" d="m500 469.7c0 0-0.3 0.9-0.8 2.7-0.5 1.7-1.3 4.2-2.1 7.3-0.7 3.1-1.6 6.9-2.1 11-0.3 2.1-0.4 4.3-0.5 6.5v0.9q0 0.8 0.1 1.8 0.1 1.8 0.2 3.8 0.6 4.1 1.1 8.5l-0.7-0.5-0.9-0.5q-0.8-0.5-1.7-1-1.7-1-3.5-2.1-1.7-1.2-3.5-2.3l-1.7-1.3-0.9-0.6c-0.3-0.2-0.6-0.5-0.7-0.5-5.2-4.2-9.5-9.5-11.6-15.4-1-2.9-1.4-5.9-1.2-8.6 0-0.3 0.1-0.8 0.2-1.2 0.1-0.4 0.1-0.8 0.3-1.2 0.2-0.7 0.5-1.4 0.8-1.9 0.3-0.6 0.7-1.1 1-1.6 0.4-0.5 0.7-0.9 1.1-1.4 2.9-3.3 5.7-5.3 7.6-6.6 1.9-1.3 3-1.9 3-1.9 0 0-0.8 1-2.2 2.8-1.4 1.8-3.5 4.4-5.3 7.8-0.8 1.7-1.6 3.7-1.3 5.1 0.3 2.1 1 4.2 2 6.3 2.1 4.2 5.8 8.2 10.4 11.8l0.3 0.3q0 0 0 0c0 0.1 0.1 0.2 0.2 0.3q0 0 0.1-0.1 0.1 0 0.1-0.1l0.1-0.1 0.1-1q0.5-3.8 1.6-7.1c1.3-4.4 3.1-8.1 4.6-11 1.6-2.9 3.1-5.2 4.1-6.6 1.1-1.5 1.7-2.3 1.7-2.3z"/><path class="d" d="m453.5 472.2c0 0-0.1 0.7-0.3 1.9-0.2 1.3-0.4 3.2-0.4 5.6 0 2.4 0.1 5.4 0.5 8.7q0.2 1.3 0.4 2.6l0.1 0.7q0 0.4 0.1 0.8 0.1 1.1 0.3 2.2c0.3 1.5 0.6 3.1 1 4.9q0.6 2.8 1.2 5.8c-0.3-0.1-0.4 0-0.7-0.1q-0.7-0.5-1.5-1-1.4-0.9-2.8-1.9c-1-0.6-2-1.4-3.1-2.3-1-0.7-2.1-1.8-3.1-2.9-0.3-0.2-0.6-0.5-0.9-0.8l-0.4-0.5q-0.5-0.5-1-1.1-0.9-1-1.8-2.2c-1.2-1.6-2.4-3.2-3.4-5-4.2-6.9-7.2-15.1-9.1-23.8q-0.9-3.9-1.4-7.7-0.3-1.9-0.5-3.8l-0.1-1.2-0.1-1.7v-0.5c0 0-0.1-0.1 0-0.2l0.1-0.2 0.6-0.6 1.1-1.3c3-3.2 5.1-6.9 5.5-10.4 0.2-1.7-0.1-3.4-0.7-5-0.6-1.6-1.6-3-2.8-4.3q-0.4-0.5-0.9-1-0.5-0.4-1-0.8c-0.6-0.7-1.3-1.1-2-1.6-0.6-0.5-1.4-0.9-2-1.3-0.7-0.3-1.4-0.7-2.1-0.9-0.7-0.2-1.4-0.3-2.1-0.4-0.7-0.1-1.4-0.2-2.1-0.1-1.4 0-2.7 0.2-4 0.5-2.6 0.5-4.9 0.9-6.8 1.1-1 0.1-1.8 0.1-2.5 0.1q-1.1 0.1-1.9 0-1.5-0.1-1.5-0.1 0 0 1.5-0.2 0.7-0.1 1.8-0.3c0.7-0.1 1.5-0.3 2.4-0.6 1.8-0.4 3.9-1.2 6.4-2.1 1.3-0.4 2.7-0.9 4.3-1.2 0.8-0.1 1.7-0.2 2.5-0.2 0.9 0 1.9 0 2.8 0.2 0.9 0.2 1.8 0.5 2.8 0.8 0.8 0.4 1.8 0.7 2.6 1.2 0.9 0.5 1.8 1 2.6 1.6q0.6 0.5 1.3 0.9 0.6 0.6 1.2 1.1c1.6 1.5 3.2 3.2 4.3 5.5 1.1 2.2 1.7 4.8 1.6 7.5-0.1 2.7-0.8 5.3-2 7.7-1.1 2.4-2.6 4.5-4.2 6.5-0.1 0.1-0.1 0.1-0.1 0.1 0 0.1 0 0 0 0.1l0.1 0.6q0.2 1.7 0.5 3.5 0.6 3.6 1.4 7.2c1.8 8.2 4.3 15.9 7.7 22.4 0.9 1.6 1.8 3.2 2.7 4.6q0.8 1.1 1.5 2.2 0.4 0.5 0.8 1l0.3 0.5 0.1 0.1q0.4 0.6 1.1 1.3 0.3 0.4 0.7 0.8l0.4 0.4c0.1 0 0-0.1 0.1-0.2q0-1.2 0-2.2 0-0.4 0-0.7v-0.2-0.4-0.7q0-1.4 0-2.7c0.1-3.5 0.4-6.5 0.8-8.9 0.5-2.4 1-4.3 1.4-5.5 0.4-1.3 0.7-1.9 0.7-1.9z"/><path class="d" d="m546.6 472.2c0 0 0.2 0.6 0.6 1.9 0.4 1.2 1 3.1 1.4 5.5 0.4 2.4 0.7 5.4 0.8 8.9q0 1.3 0 2.7v0.7 0.4 0.2q0 0.3 0 0.7 0 1 0 2.2c0.1 0.1 0 0.2 0.1 0.2l0.4-0.4q0.4-0.4 0.8-0.8 0.6-0.7 1-1.3l0.1-0.1 0.3-0.5q0.4-0.5 0.8-1 0.8-1.1 1.5-2.2c0.9-1.4 1.8-3 2.7-4.6 3.4-6.5 5.9-14.2 7.7-22.4q0.8-3.6 1.4-7.2 0.3-1.8 0.5-3.5l0.1-0.6c0-0.1 0 0 0-0.1 0 0 0 0 0-0.1-1.7-2-3.2-4.1-4.3-6.5-1.1-2.4-1.9-5-2-7.7-0.1-2.7 0.5-5.3 1.7-7.5 1-2.3 2.6-4 4.2-5.5q0.7-0.5 1.3-1.1 0.6-0.4 1.2-0.9c0.8-0.6 1.7-1.1 2.6-1.6 0.8-0.5 1.8-0.8 2.7-1.2 0.9-0.3 1.8-0.6 2.7-0.8 1-0.2 1.9-0.2 2.8-0.2 0.9 0 1.7 0.1 2.5 0.2 1.6 0.3 3 0.8 4.3 1.2 2.5 0.9 4.6 1.7 6.4 2.1 0.9 0.3 1.7 0.5 2.4 0.6q1.1 0.2 1.8 0.3 1.5 0.2 1.5 0.2 0 0-1.5 0.1-0.8 0.1-1.8 0c-0.8 0-1.6 0-2.6-0.1-1.9-0.2-4.2-0.6-6.8-1.1-1.2-0.3-2.6-0.5-4-0.5-0.7-0.1-1.4 0-2.1 0.1-0.7 0.1-1.4 0.2-2.1 0.4-0.7 0.2-1.4 0.6-2.1 0.9-0.6 0.4-1.3 0.8-2 1.3-0.7 0.5-1.4 0.9-2 1.6q-0.5 0.4-1 0.8-0.4 0.5-0.9 1c-1.1 1.3-2.2 2.7-2.8 4.3-0.6 1.6-0.9 3.3-0.7 5 0.4 3.5 2.5 7.2 5.5 10.4l1.1 1.3 0.6 0.6 0.1 0.2c0.1 0.1 0 0.2 0.1 0.2l-0.1 0.5-0.1 1.7-0.1 1.2q-0.2 1.9-0.5 3.8-0.5 3.8-1.3 7.7c-2 8.7-5 16.9-9.2 23.8-1 1.8-2.2 3.4-3.3 5q-1 1.2-1.9 2.2-0.5 0.6-0.9 1.1l-0.5 0.5c-0.3 0.3-0.6 0.6-0.8 0.8-1.1 1.1-2.2 2.2-3.2 2.9-1.1 0.9-2.1 1.7-3 2.3q-1.5 1-2.9 1.9-0.7 0.5-1.4 1c-0.4 0.1-0.5 0-0.8 0.1q0.6-3 1.3-5.8c0.3-1.8 0.7-3.4 0.9-4.9q0.2-1.1 0.3-2.2 0.1-0.4 0.1-0.8l0.1-0.7q0.2-1.3 0.4-2.6c0.4-3.3 0.5-6.3 0.5-8.7 0-2.4-0.2-4.3-0.3-5.6-0.2-1.2-0.3-1.9-0.3-1.9z"/><path class="d" d="m500 469.7c0 0-0.3 0.9-0.8 2.7-0.5 1.7-1.3 4.2-2.1 7.3-0.7 3.1-1.6 6.9-2.1 11-0.3 2.1-0.4 4.3-0.5 6.5v0.9q0 0.8 0.1 1.8 0.1 1.8 0.2 3.8 0.6 4.1 1.1 8.5l-0.7-0.5-0.9-0.5q-0.8-0.5-1.7-1-1.7-1-3.5-2.1-1.7-1.2-3.5-2.3l-1.7-1.3-0.9-0.6c-0.3-0.2-0.6-0.5-0.7-0.5-5.2-4.2-9.5-9.5-11.6-15.4-1-2.9-1.4-5.9-1.2-8.6 0-0.3 0.1-0.8 0.2-1.2 0.1-0.4 0.1-0.8 0.3-1.2 0.2-0.7 0.5-1.4 0.8-1.9 0.3-0.6 0.7-1.1 1-1.6 0.4-0.5 0.7-0.9 1.1-1.4 2.9-3.3 5.7-5.3 7.6-6.6 1.9-1.3 3-1.9 3-1.9 0 0-0.8 1-2.2 2.8-1.4 1.8-3.5 4.4-5.3 7.8-0.8 1.7-1.6 3.7-1.3 5.1 0.3 2.1 1 4.2 2 6.3 2.1 4.2 5.8 8.2 10.4 11.8l0.3 0.3q0 0 0 0c0 0.1 0.1 0.2 0.2 0.3q0 0 0.1-0.1 0.1 0 0.1-0.1l0.1-0.1 0.1-1q0.5-3.8 1.6-7.1c1.3-4.4 3.1-8.1 4.6-11 1.6-2.9 3.1-5.2 4.1-6.6 1.1-1.5 1.7-2.3 1.7-2.3z"/><path class="d" d="m464.9 461.3c0 0-0.7 0.8-1.8 2.2-1.1 1.4-2.8 3.5-4.5 6.2-0.8 1.3-1.6 2.8-2.2 4.3-0.1 0.4-0.3 0.8-0.4 1.2 0 0.3-0.1 0.7-0.1 1q0 0.3 0 0.5c0 0.1 0 0.4 0.1 0.6q0.1 0.7 0.2 1.4 0.5 2.8 1.9 5.5c0.9 1.8 2.2 3.6 3.6 5.4 1.9 2.3 4 4.4 6.1 6.3 1.6 1.3 1.1 1 1.4 1.3q0.1 0.2 0.4 0.5l0.2 0.2c0.1 0.1 0.3 0.3 0.2 0.2q0.2-0.2 0.3-0.7 0.1-0.3 0.2-0.7v-0.2-0.4q0.1-0.4 0.1-0.9c0.2-2.3 0.8-4.3 1.5-5.8 0.7-1.4 1.3-2.5 1.7-3.3 0.3-0.7 0.5-1.2 0.5-1.2 0 0 0 0.5-0.1 1.4-0.1 0.8-0.3 2.1-0.5 3.6-0.3 1.5-0.3 3.3 0 5.3q0 0.4 0.1 0.8l0.1 0.4v0.7c0.1 0.9 0.3 1.9 0.5 3q0.6 3.4 1.3 7.1c-0.3 0-0.8-0.4-1.3-0.6q-0.7-0.4-1.4-0.8-1.5-0.8-3-1.7-1.6-1-3.3-2.1-1.2-0.8-2.4-1.7c-2.6-1.8-5.1-4.1-7.4-6.8-1.7-2.1-3.1-4.4-4.1-6.8-1-2.5-1.6-5-1.8-7.4q0-0.9 0-1.8c0-0.3 0-0.6 0.1-0.9q0-0.6 0.1-1.1c0.1-0.7 0.4-1.2 0.6-1.8 0.3-0.6 0.6-1.1 0.8-1.6 1.2-1.8 2.5-3.2 3.7-4.4 2.4-2.3 4.6-3.9 6.1-4.9 1.6-1 2.5-1.5 2.5-1.5z"/><path class="d" d="m451.6 378.7c0 0-1-0.7-2.9-1.9-0.9-0.6-2.1-1.3-3.4-2.1-1.4-0.8-3-1.5-4.8-2.4-3.6-1.7-8.1-3.4-13.3-4.7-1.3-0.3-2.6-0.6-4-0.9-1.4-0.2-2.8-0.5-4.2-0.6q-1.1-0.2-2.3-0.3h-0.2c-0.1 0-0.2 0-0.2 0q-0.1 0-0.1 0h-0.2c-0.1 0.1-0.3 0.1-0.2 0.2q0.2 0.2 0.3 0.3 0 0 0 0c0 0 0-0.1 0 0l0.2 0.3 0.3 0.5q0.5 0.9 1.1 2c1.4 2.7 2.6 5.5 3.7 8.3 1.7 3.9 3.3 7.3 5.9 9.7q0.4 0.4 1 0.8c0.3 0.3 0.6 0.6 1 0.9 0.8 0.5 1.5 1.1 2.3 1.5q2.3 1.5 4.7 2.7c6.5 3.2 12.9 4.9 18.4 5.9 5.5 1 10.1 1.1 13.3 1.1q1.2 0 2.1 0 0.9-0.1 1.5-0.2 1.3 0 1.3 0 0 0-1.2 0.3-0.7 0.2-1.6 0.4-0.9 0.2-2 0.4c-3.2 0.7-7.9 1.3-13.7 1-5.8-0.2-12.8-1.2-20.2-4.2q-2.7-1.1-5.5-2.6c-0.9-0.5-1.8-1.1-2.7-1.7-0.4-0.2-0.9-0.6-1.4-1q-0.7-0.5-1.3-1.1c-1.8-1.5-3.3-3.4-4.5-5.4-1.2-2-2.1-4.1-3-6.2-1.2-2.8-2.3-5.5-3.5-7.9q-0.4-1-0.9-1.9l-0.6-1.1c-0.4-0.6-0.8-1.2-1.2-1.8q-2.3-3.6-4.6-6.9c2.8 0 5.6-0.1 8.5 0.2q1.1 0.1 2.2 0.2 0.5 0 1 0.1l0.7 0.1q1.2 0.2 2.4 0.5c1.5 0.3 3 0.7 4.5 1.1 1.4 0.5 2.8 0.9 4.1 1.4 5.4 1.9 9.8 4.3 13.2 6.6 1.7 1.2 3.2 2.2 4.4 3.3 1.3 1 2.4 1.9 3.1 2.7 1.6 1.5 2.5 2.4 2.5 2.4z"/><path class="d" d="m556.4 310.8c0 0-0.1 0.7-0.3 2-0.3 1.3-0.6 3.3-1.2 5.8-1.1 4.9-3.2 12.1-7.2 20.4-2 4.2-4.6 8.6-7.5 13.1-2.9 4.5-6.3 9.3-10.5 13.8-2.1 2.3-4.4 4.6-7.1 6.6-0.7 0.5-1.4 1-2.1 1.4-0.7 0.5-1.5 0.9-2.3 1.4l-0.9 0.5h-0.1c-0.1 0.1 0 0.1 0 0.1v0.1c0 0 0-0.1 0.1 0.1q0.1 0.5 0.3 0.9 0.3 0.9 0.8 1.8c0.7 1.1 1.6 2 2.6 2.7l0.3 0.2 0.4 0.2c0.3 0.1 0.5 0.3 0.8 0.4 0.6 0.1 1.1 0.3 1.8 0.4 1.3 0.1 2.7 0 4.2-0.3 5.9-1.3 11.7-4.8 16.5-8.5q3.7-3.2 7.3-6.2 3.6-3 7.2-5.8c9.3-7.6 18.1-14.1 26.1-18.7 4-2.3 7.8-4.2 11.3-5.3 1.8-0.5 3.5-0.9 5.2-0.9 1.6-0.1 3.1 0.1 4.3 0.4 2.6 0.8 4.1 2.3 5 3.3 0.4 0.5 0.7 1 0.9 1.3q0.3 0.4 0.3 0.4 0 0-0.4-0.4c-0.2-0.2-0.5-0.6-1-1.1-1-0.9-2.6-2.1-5-2.6q-1.8-0.3-4 0.1c-1.5 0.2-3 0.7-4.6 1.4-3.3 1.3-6.7 3.4-10.4 5.9-7.3 5.2-15.5 12.2-24.4 20.1-4.5 4-9.2 8.2-14.1 12.6-2.7 2.2-5.5 4.2-8.6 5.9-3.2 1.7-6.6 3.2-10.4 4.1-1.9 0.3-4 0.6-6.1 0.3-1-0.1-2.1-0.4-3.2-0.7-0.5-0.2-1-0.5-1.5-0.7l-0.7-0.4-0.7-0.5c-1.8-1.2-3.2-2.8-4.2-4.6q-0.7-1.3-1.3-2.7-0.2-0.7-0.4-1.4c-0.1-0.3-0.2-0.7-0.2-1.1l-0.2-1.2-0.3-2.3v-0.6c-0.1-0.1 0.1-0.1 0.1-0.1l0.3-0.1 1-0.5 2.1-1 0.5-0.2 0.2-0.1 0.5-0.3c0.6-0.3 1.3-0.6 1.9-1.1 0.6-0.3 1.2-0.7 1.8-1.1 2.4-1.7 4.7-3.6 6.7-5.6 4.1-4.1 7.6-8.5 10.8-12.7 3.2-4.3 6-8.3 8.2-12.1 4.6-7.7 7.4-14.5 9-19.3 0.9-2.4 1.4-4.3 1.8-5.5 0.4-1.3 0.6-2 0.6-2z"/><path class="d" d="m589.7 362.8c0 0-0.5 1.5-1.3 4.1-0.9 2.7-2.5 6.4-5 10.9-2.6 4.3-6.3 9.2-11.5 13.7-5.2 4.5-11.9 8.4-19.6 10.5q-1.8 0.4-3.5 0.7c-0.5 0.1-1.1 0.3-1.6 0.4q-0.9 0.1-1.7 0.2c-1.2 0.1-2.3 0.2-3.4 0.3q-1.7 0-3.3 0-0.8 0-1.6 0-0.8 0-1.6-0.1-1.6-0.1-3.2-0.3c-3.5-0.5-6.9-1.2-10-1.7q2.1-2.3 4.1-4.4 0.9-1.1 1.8-2.1l0.9-0.9 0.6-0.6q2.2-2.2 4.2-4.1c2.7-2.5 5.1-4.6 7.3-6.2 2.1-1.7 3.9-2.8 5.2-3.5q0.9-0.5 1.4-0.8 0.5-0.2 0.5-0.2 0 0-0.4 0.3-0.4 0.4-1.2 1.1c-1.1 1-2.6 2.4-4.3 4.4-1.8 1.9-3.8 4.3-6.1 7.2q-1.7 2.1-3.5 4.6l-0.5 0.6c-0.1 0.1-0.1 0.1-0.1 0.2l-0.2 0.4q-0.2 0.3-0.3 0.5c0.6 0 0.9-0.1 1.3-0.1q1.3 0 2.7 0.1 0.7 0 1.5 0 0.7-0.1 1.4-0.1 1.5-0.1 3-0.2 1.4-0.2 2.9-0.4 0.8-0.1 1.5-0.2c0.5-0.1 1-0.2 1.5-0.3q1.5-0.4 3.1-0.7c6.8-1.9 12.9-5 18-8.7 5.1-3.6 9.1-7.7 12.2-11.4 3-3.8 5.2-7.1 6.6-9.5 1.4-2.4 2.2-3.7 2.2-3.7z"/><path class="d" d="m548.4 378.7c0 0 0.9-0.9 2.5-2.4 0.7-0.8 1.8-1.7 3.1-2.7 1.2-1.1 2.7-2.1 4.4-3.3 3.5-2.3 7.9-4.7 13.2-6.6 1.3-0.5 2.7-0.9 4.1-1.4 1.5-0.4 3-0.8 4.5-1.1q1.2-0.3 2.4-0.5l0.7-0.1q0.5-0.1 1-0.1 1.1-0.1 2.2-0.2c2.9-0.3 5.7-0.2 8.5-0.2q-2.3 3.3-4.6 6.9c-0.4 0.6-0.8 1.2-1.2 1.8l-0.6 1.1q-0.5 0.9-0.9 1.9c-1.2 2.4-2.3 5.1-3.5 7.9-0.8 2.1-1.8 4.2-3 6.2-1.2 2-2.7 3.9-4.5 5.4q-0.6 0.6-1.3 1.1c-0.5 0.4-0.9 0.8-1.4 1-0.9 0.6-1.8 1.2-2.7 1.7q-2.8 1.5-5.5 2.6c-7.4 3-14.4 4-20.2 4.2-5.8 0.3-10.5-0.3-13.6-1q-1.2-0.2-2.1-0.4-0.9-0.2-1.5-0.4-1.3-0.3-1.3-0.3 0 0 1.3 0 0.6 0.1 1.5 0.2 1 0 2.2 0c3.1 0 7.7-0.1 13.2-1.1 5.5-1 11.9-2.7 18.4-5.9q2.4-1.2 4.7-2.7c0.8-0.4 1.5-1 2.3-1.5 0.4-0.3 0.7-0.6 1.1-0.9q0.5-0.4 0.9-0.8c2.6-2.4 4.2-5.8 5.9-9.7 1.2-2.8 2.3-5.6 3.8-8.3q0.5-1.1 1.1-2l0.2-0.5 0.2-0.3c0-0.1 0 0 0 0q0 0 0.1 0 0-0.1 0.2-0.3c0.1-0.1-0.1-0.1-0.2-0.2h-0.2q0 0-0.1 0c0 0-0.1 0-0.2 0h-0.2q-1.1 0.1-2.2 0.3c-1.5 0.1-2.9 0.4-4.3 0.6-1.4 0.3-2.7 0.6-4 0.9-5.2 1.3-9.7 3-13.3 4.7-1.8 0.9-3.4 1.6-4.8 2.4-1.3 0.8-2.5 1.5-3.4 2.1-1.9 1.2-2.9 1.9-2.9 1.9z"/><path class="d" d="m623.7 366.4c0 0-0.2-2-0.4-5.8 0-3.7-0.1-9.3 1.4-16.1 0.8-3.5 1.9-7.2 3.5-11 0.8-1.9 1.8-3.9 2.7-5.8 1-2 2-4 2.8-5.9l0.3-0.8 0.2-0.7c0.1-0.5 0.3-0.9 0.4-1.4 0-0.4 0.2-0.9 0.1-1.3v-0.7-0.3-0.3c-0.2-1.9-0.9-4-2-6-1-2-2.4-3.9-3.9-5.9q-1.2-1.4-2.4-2.8-0.7-0.7-1.3-1.3l-1-1-1.4-1.3q-0.4-3.4-0.8-7c-0.2-1.8-0.4-3.7-0.7-5.6-0.6-3.8-1.1-7.6-1.9-11.5-0.3-1.6-0.6-3.3-1-4.9q-0.6-2.4-1.1-4.8-0.3-1.1-0.6-2.3-0.4-1.2-0.7-2.3-0.7-2.3-1.4-4.6c-2.1-5.9-4.2-11.6-7-16.6-2.6-5.2-5.6-9.8-8.6-14q-2.4-3.1-4.7-5.9c-1.6-1.8-3.1-3.6-4.6-5.3-6-6.5-11.5-11.3-15.3-14.7-3.8-3.3-5.9-5.1-5.9-5.1 0 0 2.4 1.5 6.7 4.1 4.2 2.9 10.4 6.9 17.3 12.9 1.7 1.5 3.4 3.2 5.3 4.9q2.6 2.7 5.4 5.7c3.5 4.2 7.1 8.8 10.2 14.1 3.3 5.2 5.9 11.2 8.3 17.4q0.8 2.4 1.6 4.8 0.4 1.3 0.8 2.5 0.4 1.2 0.7 2.5 0.6 2.5 1.3 5c0.4 1.7 0.7 3.4 1 5.1 0.9 4.1 1.4 8.1 1.9 12 0.3 2 0.4 3.9 0.6 5.9q0.1 1.4 0.2 2.8l0.1 1.4q0 0 0 0.1c0 0 0 0 0 0l0.1 0.1 0.1 0.1 0.3 0.4q0.8 0.8 1.5 1.6 1.4 1.6 2.6 3.4c1.7 2.3 3.2 4.7 4.3 7.3 1.1 2.6 2 5.4 2.1 8.3v0.6 0.6l-0.1 1.1c-0.1 0.8-0.3 1.5-0.5 2.2-0.1 0.7-0.4 1.3-0.7 2l-0.3 0.9-0.5 0.8c-1.1 2.3-2.3 4.2-3.4 6-1.1 1.9-2.2 3.6-3.1 5.4-2 3.4-3.4 6.7-4.5 9.9-2.2 6.3-3 11.7-3.5 15.4-0.3 3.7-0.5 5.7-0.5 5.7z"/><path class="d" d="m564.8 439.1q0 0-0.2-0.7c-0.2-0.5-0.5-1.2-0.6-2.2-0.3-2-0.5-5 0.8-8.6 0.6-1.8 1.7-3.6 3.2-5.3 1.5-1.8 3.6-3.2 6-4.3 2.5-1 5.3-1.4 8.1-1.3q1 0 2.1 0.1 1 0.2 2 0.4l1.1 0.2 0.9 0.2q0.9 0.2 1.9 0.4c4.9 1.1 9.5 1.9 13.5 1.6 4.1-0.3 7.5-1.7 10.2-3.5 2.8-1.8 4.7-3.8 6.1-5.1 1.3-1.4 2-2.2 2-2.2 0 0-0.4 1-1.2 2.7-1 1.7-2.3 4.3-4.9 6.9-2.5 2.6-6.5 5.3-11.4 6.3-5 1-10.4 0.5-15.7-0.7q-1-0.2-2-0.5l-0.9-0.2-0.8-0.2q-0.9-0.2-1.7-0.4-0.8-0.1-1.6-0.2c-2.1-0.1-4.2-0.1-6 0.4-3.7 1-6.5 3.4-8.2 6.1-1.7 2.6-2.3 5.3-2.5 7.1-0.2 1-0.2 1.7-0.2 2.2q0 0.8 0 0.8z"/><path class="d" d="m376.3 366.4c0 0-0.2-2-0.5-5.7-0.5-3.7-1.3-9.1-3.5-15.4-1.1-3.2-2.5-6.5-4.4-9.9-1-1.8-2-3.5-3.2-5.4-1.1-1.8-2.3-3.7-3.4-6l-0.5-0.8-0.3-0.9c-0.3-0.7-0.5-1.3-0.7-2-0.2-0.7-0.4-1.4-0.5-2.2l-0.1-1.1v-0.6-0.6c0.1-2.9 1-5.7 2.1-8.3 1.2-2.6 2.6-5 4.3-7.3q1.2-1.8 2.6-3.4 0.7-0.8 1.5-1.6l0.3-0.4 0.1-0.1 0.1-0.1c0 0 0 0 0 0q0-0.1 0-0.1l0.1-1.4q0.1-1.4 0.2-2.8c0.2-2 0.3-3.9 0.6-5.9 0.6-3.9 1-7.9 1.9-12 0.3-1.7 0.6-3.4 1-5.1q0.7-2.5 1.3-5 0.4-1.3 0.7-2.5 0.4-1.2 0.8-2.5 0.8-2.4 1.6-4.8c2.4-6.2 5-12.2 8.3-17.4 3.1-5.3 6.7-9.9 10.2-14.1q2.8-3 5.4-5.7c1.9-1.7 3.6-3.4 5.3-4.9 7-6 13.1-10 17.3-12.9 4.3-2.6 6.7-4.1 6.7-4.1 0 0-2.1 1.8-5.9 5.1-3.7 3.4-9.3 8.2-15.3 14.7-1.5 1.7-3 3.5-4.6 5.3q-2.3 2.8-4.7 5.9c-2.9 4.2-6 8.8-8.6 14-2.7 5-4.9 10.7-7 16.6q-0.7 2.3-1.4 4.6-0.3 1.1-0.7 2.3-0.3 1.2-0.5 2.3-0.6 2.4-1.2 4.8c-0.4 1.6-0.6 3.3-1 4.9-0.8 3.9-1.3 7.7-1.9 11.5-0.3 1.9-0.4 3.8-0.7 5.6q-0.4 3.6-0.8 7l-1.4 1.3-0.9 1q-0.7 0.6-1.3 1.3-1.3 1.4-2.5 2.8c-1.5 2-2.9 3.9-3.9 5.9-1 2-1.8 4.1-2 6v0.3 0.3 0.7c-0.1 0.4 0.1 0.9 0.2 1.3 0 0.5 0.2 0.9 0.3 1.4l0.2 0.7 0.3 0.8c0.8 1.9 1.8 3.9 2.8 5.9 0.9 1.9 1.9 3.9 2.7 5.8 1.6 3.8 2.8 7.5 3.5 11 1.5 6.8 1.5 12.4 1.4 16.1-0.2 3.8-0.4 5.8-0.4 5.8z"/><path class="d" d="m435.2 439.1q0 0 0-0.8c0-0.5 0-1.2-0.2-2.2-0.2-1.8-0.8-4.5-2.5-7.1-1.7-2.7-4.5-5.1-8.2-6.1-1.8-0.5-3.9-0.5-6-0.4q-0.8 0.1-1.6 0.2-0.8 0.2-1.6 0.4l-0.9 0.2-0.9 0.2q-1 0.3-2 0.5c-5.3 1.2-10.7 1.7-15.7 0.7-4.9-1-8.9-3.7-11.4-6.3-2.6-2.6-3.9-5.2-4.9-6.9-0.8-1.7-1.2-2.7-1.2-2.7 0 0 0.7 0.8 2 2.2 1.4 1.3 3.3 3.3 6.1 5.1 2.7 1.8 6.2 3.2 10.2 3.5 4 0.3 8.7-0.5 13.6-1.6q0.9-0.2 1.8-0.4l0.9-0.2 1.1-0.2q1-0.2 2-0.4 1.1-0.1 2.2-0.1c2.8-0.1 5.5 0.3 8 1.3 2.4 1.1 4.5 2.5 6 4.3 1.6 1.7 2.7 3.5 3.2 5.3 1.3 3.6 1.2 6.6 0.8 8.6-0.1 1-0.4 1.7-0.5 2.2q-0.3 0.7-0.3 0.7z"/><path class="d" d="m599 384.1q0 0-0.5 0.7c-0.4 0.4-0.9 1-1.6 1.8-1.4 1.5-3.5 3.7-6.5 6.1-2.9 2.4-6.6 5-11.2 7.2-4.4 2.3-9.7 4.2-15.5 5.4-11.4 2.2-22 1.4-29.4-0.1-3.7-0.8-6.6-1.7-8.5-2.5-1-0.3-1.7-0.7-2.2-0.9q-0.8-0.4-0.8-0.4 0 0 0.8 0.1c0.6 0.1 1.4 0.2 2.4 0.3 2 0.2 5 0.3 8.6 0.3 7.3 0 17.3-0.8 27.9-2.8 10.6-2.1 19.8-5.8 26.3-9.1 3.2-1.7 5.7-3.2 7.5-4.4 1.7-1.1 2.7-1.7 2.7-1.7z"/><path class="d" d="m401 384.1c0 0 1 0.6 2.7 1.7 1.8 1.2 4.3 2.7 7.6 4.4 6.4 3.3 15.6 7 26.2 9.1 10.6 2 20.6 2.8 27.9 2.8 3.6 0 6.6-0.1 8.6-0.3 1.1-0.1 1.8-0.2 2.4-0.3q0.8-0.1 0.8-0.1 0 0-0.7 0.4c-0.5 0.2-1.3 0.6-2.3 0.9-1.9 0.8-4.8 1.7-8.5 2.5-7.4 1.5-17.9 2.3-29.4 0.1-5.7-1.2-11-3.1-15.5-5.4-4.5-2.2-8.3-4.8-11.2-7.2-2.9-2.4-5.1-4.6-6.5-6.1-0.7-0.8-1.2-1.4-1.5-1.8q-0.6-0.7-0.6-0.7z"/><path class="d" d="m556.5 400.8c18.6-3.4 40.4-21.3 45.2-28.5 4.7-7.3 4.9-22.3 4.9-22.3 0 0 6.6 6.9 3.6 19.1 0 0 10.4-20.3 0.2-29.1-10.1-8.8-36.7 13-43.9 18.2-7.2 5.2-22.2 19.9-22.2 19.9 0 0 18.3-9 27.4-12.3 9.2-3.3 10.4-1.8 10.4-1.8 0 0-1.3 17.9-24 29.6-22.7 11.8-1.6 7.2-1.6 7.2z"/><path class="d" d="m556.5 400.8c18.6-3.4 40.4-21.3 45.2-28.5 4.7-7.3 4.9-22.3 4.9-22.3 0 0 6.6 6.9 3.6 19.1 0 0 10.4-20.3 0.2-29.1-10.1-8.8-36.7 13-43.9 18.2-7.2 5.2-22.2 19.9-22.2 19.9 0 0 18.3-9 27.4-12.3 9.2-3.3 10.4-1.8 10.4-1.8 0 0-1.3 17.9-24 29.6-22.7 11.8-1.6 7.2-1.6 7.2z"/><path class="d" d="m443.5 400.8c-18.6-3.4-40.4-21.3-45.2-28.5-4.7-7.3-4.9-22.3-4.9-22.3 0 0-6.6 6.9-3.6 19.1 0 0-10.4-20.3-0.2-29.1 10.1-8.8 36.7 13 43.9 18.2 7.2 5.2 22.2 19.9 22.2 19.9 0 0-18.2-9-27.4-12.3-9.2-3.3-10.4-1.8-10.4-1.8 0 0 1.4 17.9 24 29.6 22.7 11.8 1.6 7.2 1.6 7.2z"/><path class="d" d="m510.9 372.5c0 0-4.7 16.5-4.1 21.6 0.7 5.1 14.8 25.5 21.1 32.7 0 0-5.5-21-5.1-25.4l20.3-19.6-23.9 3.3-5.4-9.7z"/><path class="d" d="m489.1 372.5c0 0 4.7 16.5 4.1 21.6-0.7 5.1-14.8 25.5-21.1 32.7 0 0 5.5-21 5.1-25.4l-20.3-19.6 23.9 3.3 5.4-9.7z"/><path class="a" d="m416.7 363.4c0 0 34.8 3.2 52.7 35 0 0-26.8 0.9-40.1-8.8-13.3-9.6-12.6-26.2-12.6-26.2z"/><path class="a" d="m583.3 363.4c0 0-34.8 3.2-52.7 35 0 0 26.8 0.9 40.1-8.8 13.3-9.6 12.6-26.2 12.6-26.2z"/><path class="e" d="m380 339q0 0 0.6-0.9c0.5-0.6 1.2-1.5 2.3-2.5 2.1-1.9 5.8-4.4 11.1-5.5 2.6-0.6 5.6-0.8 8.7-0.6 3.1 0.2 6.4 0.6 9.8 1.6 3.5 1 7 2.5 10.3 4.4 3.3 2 6.4 4.3 9.4 6.8 3.1 2.6 5.9 5.1 8.5 7.6 2.7 2.6 5.1 5 7.5 7.4 4.7 4.7 8.9 8.9 12.6 12.2 3.7 3.3 6.9 5.7 9.4 6.7 1.3 0.6 2.3 0.7 3 0.6 0.4-0.1 0.7-0.2 0.8-0.2q0.3-0.1 0.3-0.1 0 0-0.2 0.1c-0.2 0.1-0.4 0.3-0.8 0.5-0.7 0.3-1.9 0.4-3.4 0.2-2.9-0.5-6.8-2.4-11.1-5.1-4.4-2.7-9.3-6.4-14.5-10.7-5.1-4.3-10.6-9.1-16.4-13.9-2.9-2.4-5.7-4.7-8.6-6.6q-4.2-2.8-8.6-4.4c-2.9-1.2-5.8-1.9-8.6-2.5-2.7-0.6-5.3-0.7-7.7-0.6-4.8 0.2-8.5 1.6-10.9 3-1.2 0.7-2.1 1.3-2.7 1.8q-0.8 0.7-0.8 0.7z"/><path class="e" d="m620 339q0 0-0.8-0.7c-0.6-0.5-1.5-1.1-2.7-1.8-2.4-1.4-6.1-2.8-10.9-3-2.4-0.1-5 0-7.7 0.6-2.8 0.6-5.7 1.3-8.6 2.5q-4.4 1.6-8.6 4.4c-2.9 1.9-5.7 4.2-8.6 6.6-5.8 4.8-11.2 9.6-16.4 13.9-5.2 4.3-10.1 8-14.4 10.7-4.4 2.7-8.3 4.6-11.2 5.1-1.5 0.2-2.7 0.1-3.4-0.2-0.4-0.2-0.6-0.4-0.8-0.5q-0.2-0.1-0.2-0.1 0 0 0.3 0.1c0.2 0 0.4 0.1 0.8 0.2 0.7 0.1 1.7 0 3-0.6 2.5-1 5.7-3.4 9.4-6.7 3.7-3.3 7.9-7.5 12.6-12.2 2.4-2.4 4.8-4.8 7.5-7.4 2.6-2.5 5.4-5 8.5-7.6 3-2.5 6.1-4.8 9.4-6.8 3.3-1.9 6.9-3.4 10.3-4.4 3.4-1 6.7-1.4 9.8-1.6 3.2-0.2 6.2 0 8.8 0.6 5.2 1.1 8.9 3.6 11.1 5.5 1 1 1.7 1.9 2.2 2.5q0.6 0.9 0.6 0.9z"/><path class="e" d="m451.8 203.5c-28.7 22.4-18.2 64.3 5.3 86.7 13.6 12.9 32.3 19.3 51 20.1 19.8 0.9 43.9-4 56.9-9 12.5-4.9 2.1-0.3 15 2.5 7 1.5 12.7-4.4 14.3-10.8 1.3-5.3 0.3-10.9-0.8-16.2-6.1-28.6-16.5-59.3-40.4-77.1-17.8-13.2-44-15.8-65.5-11.4-12.9 2.6-25.8 7.4-35.8 15.2z"/><path class="e" d="m505.5 368.3c21.9-12 38.9-33.2 46.5-57.1-5.2 3.4-10.9 5.9-16.9 7.4q0 0-0.1 0c-3.9 0.9-7 3.7-8.4 7.5-4.9 13.1-14 24.7-22.8 35.7 1.1 1.7 1.9 4.5 1.7 6.5z"/><path class="e" d="m494.5 368.3c-21.9-12-38.9-33.2-46.5-57.1 5.2 3.4 10.9 5.9 16.9 7.4q0.1 0 0.1 0c3.9 0.9 7.1 3.7 8.5 7.5 4.8 13.1 13.9 24.7 22.7 35.7-1 1.7-1.9 4.5-1.7 6.5z"/><path class="g" d="m549.2 411.2c4.6 1.1 9.4 0.2 14-1 11-2.7 21.8-6.8 31-13.3 9.2-6.6 16.8-15.9 19.9-26.8-3.4 4.6-8 8.9-13.1 11.5 8.4-5.3 14-14.2 16.8-23.7 1.5 2.5 2.2 5.5 3 8.3 1 3.7 2 7.5 2.1 11.4 0.1 3-0.3 5.9-0.9 8.9-1.6 8.3-4.6 17-11.2 22.3-4.7 3.7-10.8 5.4-16.7 5.8-6 0.5-12-0.3-18-0.9-6.8-0.6-13.6-1.2-20.5-0.8-2.1 0.1-4.4-0.7-6.4-1.7z"/><path class="e" d="m549.2 411.2c4.6 1.1 9.4 0.2 14-1 11-2.7 21.8-6.8 31-13.3 9.2-6.6 16.8-15.9 19.9-26.8-3.4 4.6-8 8.9-13.1 11.5 8.4-5.3 14-14.2 16.8-23.7 1.5 2.5 2.2 5.5 3 8.3 1 3.7 2 7.5 2.1 11.4 0.1 3-0.3 5.9-0.9 8.9-1.6 8.3-4.6 17-11.2 22.3-4.7 3.7-10.8 5.4-16.7 5.8-6 0.5-12-0.3-18-0.9-6.8-0.6-13.6-1.2-20.5-0.8-2.1 0.1-4.4-0.7-6.4-1.7z"/><path class="e" d="m542.4 354.6c-1.8 2.7-3.7 5.4-4.4 8.6 8.1-8.5 16.3-16.8 25.5-24.1 2.2-1.8 4.5-3.5 7-4.9 6.7-3.6 14.6-4.2 22.2-4.6 9.2-0.4 18.7-0.5 27.2 3.1 0.3-3.9-1.4-7.6-3.5-10.9-8.2-13.5-22.2-23.2-37.6-26.6-3-0.6-7.8-2.1-10.6-0.7-2.5 1.3-2.8 4.3-3.2 6.8-1.6 8.8-3.9 17.3-7.4 25.6-4 9.8-9.3 19-15.2 27.7z"/><path class="e" d="m457.6 354.6c1.8 2.7 3.8 5.4 4.4 8.6-8.1-8.5-16.3-16.8-25.5-24.1-2.2-1.8-4.5-3.5-7-4.9-6.7-3.6-14.6-4.2-22.2-4.6-9.2-0.4-18.7-0.5-27.2 3.1-0.3-3.9 1.5-7.6 3.5-10.9 8.2-13.5 22.2-23.2 37.7-26.6 2.9-0.6 7.7-2.1 10.6-0.7 2.4 1.3 2.7 4.3 3.2 6.8 1.5 8.8 3.9 17.3 7.3 25.6 4 9.8 9.3 19 15.2 27.7z"/><path class="g" d="m576.9 247c-3.9-21.5-18.7-40.7-38.5-50.2 4.9 4 6.4 10.9 6.5 17.1 0 3.9-1 7.8-1.1 11.8-0.1 7.5 3.8 15 10 19.3 6.2 4.2 16.1 4.8 23.1 2z"/><path class="g" d="m610.5 325.4c0 0-0.6 0.1-1.7 0.1q-0.9-0.1-2 0c-0.8 0-1.6-0.1-2.6 0-1.9 0-4.1 0-6.5 0.1-2.4 0.1-5 0.2-7.8 0.3-2.7 0.1-5.3 0.2-7.7 0.3-2.4 0.1-4.6 0.3-6.5 0.4-1 0-1.8 0.1-2.6 0.2q-1.2 0.1-2 0.2c-1.1 0.1-1.7 0.1-1.7 0.1 0 0 0.4-0.4 1.3-1.1q0.7-0.6 1.7-1.2c0.6-0.5 1.4-1 2.3-1.4 1.7-1 3.9-2 6.5-2.8 2.5-0.8 5.4-1.4 8.5-1.5 3-0.1 6 0.2 8.6 0.8 2.6 0.6 4.8 1.4 6.6 2.2 1 0.4 1.8 0.9 2.4 1.3q1.1 0.6 1.8 1c0.9 0.7 1.4 1 1.4 1z"/><path class="g" d="m389.5 325.4c0 0 0.5-0.3 1.4-1q0.7-0.4 1.8-1c0.7-0.4 1.5-0.9 2.4-1.3 1.8-0.8 4.1-1.6 6.7-2.2 2.5-0.6 5.5-0.9 8.6-0.8 3 0.1 5.9 0.7 8.5 1.5 2.5 0.8 4.7 1.8 6.4 2.8 0.9 0.4 1.7 0.9 2.3 1.4q1 0.6 1.7 1.2c0.9 0.7 1.3 1.1 1.3 1.1 0 0-0.6 0-1.7-0.1q-0.8-0.1-2-0.2c-0.8-0.1-1.6-0.2-2.6-0.2-1.8-0.1-4.1-0.3-6.5-0.4-2.4-0.1-5-0.2-7.7-0.3-2.8-0.1-5.4-0.2-7.8-0.3-2.4-0.1-4.6-0.1-6.5-0.1-0.9-0.1-1.8 0-2.6 0q-1.1-0.1-2 0c-1.1 0-1.7-0.1-1.7-0.1z"/><path class="g" d="m597.7 406.3c0 0 0.4-0.5 1.1-1.4q0.6-0.6 1.3-1.6c0.5-0.6 1-1.2 1.6-2.1 0.6-0.7 1.2-1.6 1.8-2.5 0.7-0.9 1.3-1.9 2-2.9q2-3.2 4.2-6.8 2-3.7 3.7-7c0.5-1.2 1.1-2.2 1.5-3.2 0.5-1.1 0.9-2 1.3-2.9 0.4-0.9 0.7-1.8 1-2.5q0.4-1.1 0.7-1.9c0.4-1.1 0.6-1.7 0.6-1.7 0 0 0.2 0.6 0.4 1.7q0.3 0.9 0.4 2.1c0.1 0.9 0.2 1.8 0.2 2.9 0 1 0 2.2-0.1 3.4-0.1 1.2-0.3 2.5-0.6 3.9-0.6 2.8-1.6 5.7-3.2 8.5-1.7 2.8-3.7 5.2-5.7 7.2-1 0.9-2 1.8-3.1 2.5-1 0.7-2 1.3-2.9 1.8-0.9 0.6-1.8 0.9-2.5 1.3q-1.2 0.5-2 0.7c-1.1 0.4-1.7 0.5-1.7 0.5z"/><path class="e" d="m450.8 411.2c-4.6 1.1-9.4 0.2-14-1-11-2.7-21.8-6.8-31-13.3-9.2-6.6-16.8-15.9-19.9-26.8 3.4 4.6 8 8.9 13.1 11.5-8.4-5.3-14-14.2-16.8-23.7-1.4 2.5-2.2 5.5-2.9 8.3-1.1 3.7-2.1 7.5-2.2 11.4-0.1 3 0.3 5.9 0.9 8.9 1.6 8.3 4.6 17 11.2 22.3 4.7 3.7 10.8 5.4 16.7 5.8 6 0.5 12-0.3 18-0.9 6.8-0.6 13.6-1.2 20.5-0.8 2.2 0.1 4.4-0.7 6.4-1.7z"/><path class="g" d="m402.4 406.3c0 0-0.7-0.1-1.8-0.5q-0.8-0.2-2-0.7c-0.7-0.4-1.6-0.7-2.5-1.3-0.9-0.5-1.9-1.1-2.9-1.8-1-0.7-2-1.6-3.1-2.5-2-2-4-4.4-5.6-7.2-1.6-2.8-2.7-5.7-3.3-8.5-0.3-1.4-0.5-2.7-0.6-3.9-0.1-1.2-0.1-2.4-0.1-3.4 0-1.1 0.1-2 0.2-2.9q0.2-1.2 0.4-2.1c0.2-1.1 0.4-1.7 0.4-1.7 0 0 0.3 0.6 0.6 1.7q0.3 0.8 0.8 1.9c0.3 0.7 0.5 1.6 0.9 2.5 0.4 0.9 0.8 1.8 1.3 2.9 0.4 1 1 2 1.5 3.2q1.7 3.3 3.8 7 2.1 3.6 4.1 6.8c0.7 1 1.3 2 2 2.9 0.6 0.9 1.2 1.8 1.8 2.5 0.6 0.9 1.2 1.5 1.6 2.1q0.8 1 1.3 1.6c0.8 0.9 1.2 1.4 1.2 1.4z"/><path class="d" d="m488.2 403.7q0 0 0.3-0.8c0.1-0.5 0.4-1.2 0.7-2.1 0.7-1.9 1.4-4.6 2-8 1.3-6.7 1.6-16.2 0.1-26.3-1.6-10.2-4.4-19.4-6.5-26.1-2.2-6.6-3.5-10.8-3.5-10.8 0 0 0.7 0.8 1.8 2.5 1.1 1.6 2.7 4 4.5 7.1 1.8 3.1 3.8 6.9 5.5 11.3 1.8 4.5 3.3 9.5 4.2 15.1 0.8 5.5 0.8 10.9 0.2 15.7-0.7 4.8-1.9 9-3.3 12.4-1.5 3.4-3 5.9-4.1 7.5-0.6 0.8-1.1 1.4-1.4 1.9q-0.5 0.6-0.5 0.6z"/><path class="d" d="m511.8 403.7q0 0-0.5-0.6c-0.3-0.5-0.8-1.1-1.4-1.9-1.1-1.6-2.6-4.1-4-7.5-1.5-3.4-2.7-7.6-3.4-12.4-0.6-4.8-0.6-10.2 0.2-15.7 0.9-5.6 2.4-10.6 4.2-15.1 1.8-4.4 3.7-8.2 5.5-11.3 1.8-3.1 3.4-5.5 4.5-7.1 1.2-1.7 1.8-2.5 1.8-2.5 0 0-1.3 4.2-3.5 10.8-2.1 6.7-4.9 15.9-6.4 26.1-1.6 10.1-1.3 19.6 0 26.3 0.6 3.4 1.4 6.1 2 8 0.3 0.9 0.6 1.6 0.7 2.1q0.3 0.8 0.3 0.8z"/><path class="p" d="m602.9 354.8c0 0 0 0.6 0 1.6q0 0.7-0.1 1.8c-0.1 0.7-0.2 1.5-0.4 2.4-0.3 1.8-0.9 3.9-1.8 6.2-1 2.2-2.2 4.6-3.9 6.9-1.7 2.2-3.6 4.1-5.4 5.7-1.9 1.5-3.7 2.7-5.4 3.5-0.7 0.5-1.5 0.8-2.2 1.1q-1 0.5-1.7 0.7c-0.9 0.3-1.5 0.5-1.5 0.5 0 0 0.5-0.4 1.3-1q0.6-0.4 1.4-1.1c0.5-0.5 1.1-0.9 1.8-1.5 1.3-1.2 2.8-2.6 4.3-4.3 1.5-1.7 3.1-3.6 4.7-5.7 1.5-2.1 2.8-4.1 4-6.1 1.1-2 2.1-3.8 2.8-5.4 0.4-0.8 0.6-1.5 0.9-2.2q0.4-0.9 0.7-1.6c0.3-1 0.5-1.5 0.5-1.5z"/><path class="p" d="m529.8 401.5c0 0-0.5-0.1-1.4-0.4-0.9-0.3-2.3-0.7-3.9-1.4-1.6-0.6-3.5-1.6-5.5-2.8q-0.8-0.5-1.6-1l-0.1-0.1h-0.1l-0.1-0.1-0.1-0.1q-0.1 0-0.1 0c0 0 0 0.1 0 0.2 0 0 0-0.1 0 0v0.1q0.1 0.5 0.3 0.9 0.3 0.9 0.6 1.8c0.7 2.3 1.4 4.4 2 6.2 1.1 3.4 1.8 5.7 1.8 5.7 0 0-1.4-1.9-3.3-5.1-0.9-1.6-1.9-3.6-3-5.8q-0.4-0.9-0.8-1.8-0.1-0.4-0.3-0.9l-0.3-0.8-0.4-0.9c-0.9-2.4-1.7-4.9-2.5-7.5q-0.4-1.2-0.8-2.3c2.2 2 4.6 4.6 6.5 6.3l0.7 0.6 0.6 0.5q0.6 0.5 1.1 0.9 0.7 0.6 1.3 1.1c1.8 1.5 3.4 2.7 4.8 3.6 1.4 1 2.6 1.8 3.4 2.3 0.8 0.5 1.2 0.8 1.2 0.8z"/><path class="g" d="m526.3 449.8c0 0 0 2-0.3 5.1-0.1 0.7-0.2 1.6-0.3 2.5 0.1 0.3 0 0.5 0.4 0.4h0.2c-0.1-0.1 0.2 0.2 0.5 0.3 0.5 0.2 1 0.6 1.5 0.9q1.6 1.1 2.9 2.5c1.8 1.9 3 4.1 3.8 6.2 0.8 2.1 1.1 4.1 1.1 5.7 0.1 1.7-0.1 3-0.3 3.9-0.2 0.9-0.4 1.3-0.4 1.3 0 0-0.1-0.4-0.4-1.3-0.3-0.8-0.7-2-1.3-3.3-1.3-2.7-3.4-6-6.2-9-0.7-0.8-1.4-1.5-2.2-2.1-0.3-0.4-0.7-0.7-1.1-1-0.2-0.1-0.2-0.2-0.8-0.6q-0.6-0.4-1.2-0.7-0.5-0.4-1-0.8l-0.2-0.1v-0.1l0.1-0.3 0.3-0.6q0.5-1.2 0.9-2.3c0.5-0.9 0.9-1.6 1.3-2.3 1.5-2.7 2.7-4.3 2.7-4.3z"/><path class="g" d="m512.8 477.4c0 0-0.8-1.1-1.8-2.7-1-1.6-2.3-3.8-3.3-6.2-1.1-2.5-1.8-4.9-2.3-6.8-0.5-1.8-0.8-3.1-0.8-3.1 0 0 1.3 0.5 2.9 1.7 1.6 1.2 3.6 3.3 4.8 6.1 1.2 2.9 1.4 5.7 1.2 7.8-0.2 2-0.7 3.2-0.7 3.2z"/><path class="e" d="m459.5 297.7c0 0-1.1-0.3-3-0.8-1.8-0.6-4.5-1.7-7.6-3.4-3-1.7-6.6-4.2-9.9-7.6-3.4-3.4-6.5-7.6-8.9-12.7-2.4-5-3.6-10.2-4.1-14.9-0.5-4.7-0.2-9 0.3-12.4 0.5-3.5 1.2-6.3 1.8-8.1 0.5-1.9 0.9-2.9 0.9-2.9 0 0 0.1 1.1 0.3 3 0.1 1.9 0.4 4.7 0.9 8 1 6.6 2.9 15.3 7 24 4 8.7 9.5 15.8 14.1 20.5 2.3 2.4 4.4 4.2 5.8 5.4 1.5 1.2 2.4 1.9 2.4 1.9z"/><path class="f" d="m442.1 447.5c4.7-5 10.2-9.9 17-11.3-7 7-12.1 15.9-14.6 25.4-1.3 4.6-1.9 9.3-2.3 14.1 0.1-0.9-0.7-2.3-1-3.1q-0.5-1.6-1-3.3-0.9-3.3-1.7-6.7c-0.7-3.3-2.6-6.1-0.8-9.3 1.1-2.2 2.8-4 4.4-5.8z"/><path class="f" d="m557.9 447.5c-4.7-5-10.2-9.9-17-11.3 7 7 12.1 15.9 14.7 25.4 1.2 4.6 1.8 9.3 2.2 14.1-0.1-0.9 0.7-2.3 1-3.1q0.5-1.6 1-3.3 0.9-3.3 1.7-6.7c0.7-3.3 2.6-6.1 0.9-9.3-1.2-2.2-2.9-4-4.5-5.8z"/></svg>